<svg xmlns="http://www.w3.org/2000/svg" xmlns:v="https://svgstorm.com"
viewBox = "0 0 1000 1000"
width="1000"
height="1000">
<g fill="None" fill-opacity="0.0" stroke="#FEFEFE" stroke-opacity="1.00" stroke-width="0.3"><path d="
M 0.00 1000.00 
L 1000.00 1000.00
L 1000.00 0.00
L 0.00 0.00
L 0.00 1000.00
M 504.00 204.00 
C 570.37 203.01 629.31 231.98 680.00 272.00
C 682.29 273.80 684.03 276.03 686.00 278.00
C 692.01 283.14 697.91 289.04 703.00 295.00
C 705.02 297.02 707.23 298.76 709.00 301.00
C 714.52 308.00 720.75 314.46 725.00 322.00
C 726.25 323.75 727.80 325.05 729.00 327.00
C 757.56 373.14 778.43 423.06 778.00 479.00
C 790.29 478.93 804.63 479.18 817.00 482.00
C 807.08 489.75 791.42 485.07 779.00 487.00
C 779.40 491.46 778.45 496.31 778.00 500.00
C 778.07 502.50 777.17 505.25 777.00 507.00
C 777.00 541.32 761.32 580.82 746.08 610.08 C 730.83 639.33 712.54 664.18 687.00 686.00
C 685.33 687.67 683.78 689.48 682.00 691.00
C 674.86 697.10 668.16 702.19 660.75 707.75 C 653.34 713.32 645.74 717.91 637.77 722.77 C 629.80 727.63 621.60 732.06 612.92 735.92 C 604.24 739.79 594.96 743.72 585.93 746.93 C 576.89 750.13 565.13 752.71 555.99 754.99 C 546.85 757.28 546.85 756.12 539.99 757.99 C 533.13 759.87 528.63 757.96 523.00 760.00 C 517.37 762.04 509.25 758.00 505.00 761.00
C 503.88 773.19 504.03 789.66 498.00 799.00
C 496.85 791.22 496.88 783.10 497.00 775.00
C 496.77 772.58 496.00 769.09 496.00 766.00
C 496.00 764.67 496.00 763.33 496.00 762.00
C 493.12 762.26 490.10 761.20 488.00 761.00
C 358.73 761.00 230.73 642.42 223.00 513.00
C 222.73 511.13 222.05 508.50 222.00 506.00
C 221.93 502.34 222.00 498.66 222.00 495.00
C 221.79 492.85 220.74 489.87 221.00 487.00
C 209.22 488.14 195.68 486.16 185.00 483.00
C 195.66 478.19 209.19 480.07 221.00 478.00
C 221.47 470.61 220.31 462.02 222.00 455.00 C 223.69 447.98 223.32 439.83 225.00 433.00 C 226.67 426.17 228.44 419.61 229.98 412.98 C 231.51 406.34 233.89 400.18 235.93 393.93 C 237.96 387.68 240.50 381.85 242.92 375.92 C 245.35 369.99 248.27 364.61 250.92 358.92 C 253.58 353.24 256.82 348.13 259.77 342.77 C 262.72 337.41 266.11 332.60 269.75 327.75 C 273.40 322.90 276.03 317.50 279.92 312.92 C 283.81 308.34 287.61 303.85 291.30 299.30 C 295.00 294.76 299.75 291.00 303.75 286.75 C 307.76 282.50 311.54 278.86 315.75 274.75 C 319.97 270.64 325.20 267.58 329.70 263.70 C 334.19 259.81 338.87 256.19 343.75 252.75 C 348.64 249.31 354.11 246.51 359.23 243.23 C 364.35 239.95 369.60 236.87 375.23 234.23 C 380.86 231.59 386.37 228.55 392.23 226.23 C 398.08 223.91 403.88 220.77 410.08 219.08 C 416.28 217.38 422.80 214.85 429.07 213.07 C 435.35 211.30 443.13 209.13 449.67 208.67 C 456.21 208.21 464.59 204.03 471.00 205.00 C 477.41 205.97 489.53 200.37 495.00 204.00
C 495.62 191.62 497.13 177.18 500.00 166.00
C 503.10 178.14 503.42 191.15 504.00 204.00 Z"/>
</g>
<g fill="None" fill-opacity="0.0" stroke="#F3B54F" stroke-opacity="1.00" stroke-width="0.3"><path d="
M 495.00 204.00 
C 494.70 209.95 494.55 218.06 494.00 225.00
C 493.32 233.63 492.03 242.29 491.00 251.00
C 490.37 256.32 489.13 262.22 488.00 267.00
C 485.74 290.39 481.78 313.87 478.00 337.00
C 477.92 337.49 478.00 338.00 478.00 338.00
C 481.11 341.99 476.92 350.16 476.00 354.00
C 475.66 355.40 475.17 358.04 475.00 359.00
C 471.62 378.19 471.22 397.78 468.00 417.00
C 441.81 401.20 416.92 381.83 392.00 364.00
C 388.94 363.99 386.60 361.29 385.00 359.00
C 384.68 358.76 384.00 359.00 384.00 359.00
C 380.59 356.88 377.80 354.69 375.00 352.00
C 374.10 351.35 373.70 350.68 373.00 350.00
C 370.39 347.48 365.91 343.99 363.00 342.00
C 360.65 341.34 358.38 340.64 356.00 340.00
C 361.22 343.81 365.98 353.74 370.00 359.00
C 371.58 360.83 372.78 361.79 374.00 364.00
C 377.70 370.72 382.45 378.07 387.00 384.00
C 403.35 405.33 419.50 427.30 434.00 450.00
C 415.56 453.51 396.56 454.85 378.00 458.00
C 376.62 458.32 374.91 458.83 373.00 459.00
C 367.61 459.47 362.31 460.12 357.00 461.00
C 356.51 461.08 356.00 461.00 356.00 461.00
C 342.88 460.12 329.24 465.43 316.00 466.00 C 302.76 466.57 289.30 470.83 276.00 472.00
C 271.64 472.89 266.99 473.80 262.00 474.00
C 258.07 474.16 254.80 474.58 251.00 475.00
C 246.94 475.84 242.77 477.13 238.00 477.00
C 237.00 476.97 236.00 477.00 235.00 477.00
C 233.62 477.25 232.06 478.25 230.00 478.00
C 229.51 477.94 229.00 478.00 229.00 478.00
C 226.25 480.03 223.46 478.14 221.00 478.00
C 209.19 480.07 195.66 478.19 185.00 483.00
C 195.68 486.16 209.22 488.14 221.00 487.00
C 223.59 486.75 226.27 484.98 229.00 487.00
C 229.50 487.00 230.00 487.00 230.00 487.00
C 239.23 487.00 247.46 488.22 255.00 491.00
C 257.16 491.38 259.99 491.81 262.00 492.00
C 264.91 492.27 267.77 491.36 270.00 493.00
C 270.30 493.22 270.77 493.95 271.00 494.00
C 299.86 494.00 327.35 502.45 356.00 504.00
C 358.04 504.11 359.55 504.64 361.00 505.00
C 366.13 505.51 371.64 507.58 377.00 507.00
C 377.49 506.95 378.00 507.00 378.00 507.00
C 395.52 513.13 416.07 510.16 434.00 515.00
C 419.63 537.53 404.31 560.42 387.00 581.00
C 381.30 588.43 375.66 597.39 370.00 605.00
C 368.08 607.58 364.69 613.61 362.75 615.75 C 360.80 617.88 353.24 624.02 357.00 626.00
C 358.90 625.25 360.98 624.52 363.00 624.00
C 366.55 621.62 369.30 617.44 373.00 615.00
C 379.29 610.85 386.19 606.45 392.00 602.00
C 416.50 583.22 442.27 564.90 468.00 548.00
C 469.99 567.41 473.20 586.52 475.00 606.00
C 474.95 606.50 475.00 607.00 475.00 607.00
C 476.47 608.72 475.71 610.70 476.00 613.00
C 476.60 615.50 478.23 617.27 478.00 621.00
C 477.97 621.50 478.00 622.50 478.00 623.00
C 479.02 625.26 478.01 626.21 478.00 628.00
C 477.93 639.44 481.50 652.47 483.00 664.00
C 483.72 667.10 484.65 670.35 485.00 674.00
C 486.20 686.37 489.00 698.35 489.00 711.00
C 489.16 711.74 489.90 712.74 490.00 714.00
C 490.43 715.75 491.26 717.60 491.00 720.00
C 490.95 720.49 491.00 721.00 491.00 721.00
C 492.36 722.84 492.07 725.51 492.00 728.00
C 491.97 729.00 492.00 730.00 492.00 731.00
C 492.58 733.63 492.72 736.83 493.00 740.00
C 493.46 745.25 495.54 750.67 496.00 756.00
C 496.60 758.95 497.00 762.43 497.00 766.00
C 497.00 769.00 497.00 772.00 497.00 775.00
C 496.88 783.10 496.85 791.22 498.00 799.00
C 504.03 789.66 503.88 773.19 505.00 761.00
C 505.18 759.03 504.97 756.98 505.00 755.00
C 505.04 752.21 505.07 750.18 506.00 748.00
C 505.97 747.50 506.00 746.50 506.00 746.00
C 506.00 741.79 506.28 737.52 507.00 734.00
C 507.40 729.50 508.27 724.59 509.00 720.00
C 509.49 716.92 510.57 712.68 511.00 710.00
C 513.96 655.54 528.47 602.48 532.00 548.00
C 568.33 571.20 602.41 598.34 638.00 623.00
C 637.53 621.45 638.96 620.70 639.00 620.00
C 618.52 582.85 585.68 552.48 566.00 515.00
C 623.08 506.38 681.61 500.88 738.00 491.00
C 746.43 488.04 755.41 487.00 765.00 487.00
C 769.33 487.00 773.67 487.00 778.00 487.00
C 778.50 487.00 779.00 487.00 779.00 487.00
C 791.42 485.07 807.08 489.75 817.00 482.00
C 804.63 479.18 790.29 478.93 778.00 479.00
C 773.56 479.03 768.70 477.28 764.00 477.00
C 761.25 476.84 759.17 476.73 757.00 476.00
C 756.15 475.71 754.90 475.18 754.00 475.00
C 745.05 473.22 735.94 473.70 726.99 472.01 C 718.05 470.32 708.58 470.30 699.78 468.22 C 690.98 466.15 680.77 466.64 672.00 465.00 C 663.23 463.36 653.56 462.47 645.00 461.00 C 636.43 459.53 625.32 459.22 617.33 457.67 C 609.34 456.12 596.97 455.61 590.33 453.67 C 583.69 451.74 566.31 453.69 566.79 447.77 C 567.27 441.85 576.73 435.31 579.30 429.30 C 581.87 423.30 588.59 417.00 591.92 410.92 C 595.26 404.84 601.92 399.56 605.25 393.25 C 608.59 386.95 614.95 381.65 618.30 375.30 C 621.66 368.95 627.88 363.72 631.75 357.75 C 635.62 351.78 642.42 345.65 642.00 339.00
C 605.49 365.32 569.86 393.27 532.00 417.00
C 526.02 362.42 516.59 308.70 511.00 254.00
C 510.88 253.52 510.13 252.94 510.00 252.00
C 509.41 250.47 508.74 249.14 509.00 247.00
C 509.06 246.51 509.00 246.00 509.00 246.00
C 509.00 245.50 509.00 245.00 509.00 245.00
C 507.03 242.34 507.40 236.52 507.00 233.00
C 506.72 230.56 506.20 228.33 506.00 226.00
C 505.19 222.02 505.78 217.77 506.00 214.00
C 505.84 209.94 504.53 207.70 504.00 204.00
C 503.42 191.15 503.10 178.14 500.00 166.00
C 497.13 177.18 495.62 191.62 495.00 204.00 Z"/>
</g>
<g fill="None" fill-opacity="0.0" stroke="#082C6E" stroke-opacity="1.00" stroke-width="0.3"><path d="
M 221.00 478.00 
C 223.67 478.00 226.33 478.00 229.00 478.00
C 229.00 478.00 229.51 477.94 230.00 478.00
C 231.33 476.72 233.06 476.99 235.00 477.00
C 236.00 477.00 237.00 476.97 238.00 477.00
C 241.99 476.12 246.47 475.51 251.00 475.00
C 254.80 474.58 258.07 474.16 262.00 474.00
C 261.99 474.00 262.00 473.00 262.00 473.00
C 258.14 473.11 247.53 474.63 245.00 472.00
C 244.71 469.80 244.92 467.22 245.00 465.00
C 245.07 463.15 245.83 461.19 246.00 460.00
C 246.00 448.83 248.34 436.25 250.93 425.93 C 253.51 415.61 256.31 405.49 259.92 395.92 C 263.54 386.36 267.11 377.53 271.77 368.77 C 276.43 360.01 280.24 351.74 285.92 343.92 C 291.60 336.10 295.99 328.73 302.75 321.75 C 309.51 314.78 318.43 325.60 327.23 328.77 C 336.03 331.94 346.66 337.50 356.00 340.00
C 358.38 340.64 360.65 341.34 363.00 342.00
C 366.56 342.99 367.01 343.28 371.07 343.93 C 375.13 344.58 372.41 347.52 373.00 350.00
C 373.70 350.68 374.10 351.35 375.00 352.00
C 378.09 354.26 381.87 355.74 384.00 359.00
C 384.00 359.00 384.68 358.76 385.00 359.00
C 387.35 360.80 389.08 362.41 392.00 363.00
C 392.30 354.98 395.80 348.21 404.00 351.00 C 412.20 353.79 418.04 353.11 426.07 354.93 C 434.10 356.74 441.75 356.26 450.00 357.00 C 458.25 357.74 466.54 358.99 475.00 359.00
C 474.13 357.11 475.70 355.19 476.00 354.00
C 477.29 348.84 477.63 343.42 478.00 338.00
C 473.24 338.43 467.97 337.38 464.00 337.00
C 461.67 337.00 459.33 337.04 457.00 337.00
C 454.58 336.96 451.70 336.16 450.00 336.00
C 434.09 335.68 418.58 331.88 403.00 330.00
C 416.80 288.74 442.69 239.32 489.00 228.00
C 491.59 229.72 490.00 240.86 490.00 244.00
C 490.55 238.21 493.00 230.58 494.00 225.00
C 494.55 218.06 494.70 209.95 495.00 204.00
C 489.53 200.37 477.41 205.97 471.00 205.00 C 464.59 204.03 456.21 208.21 449.67 208.67 C 443.13 209.13 435.35 211.30 429.07 213.07 C 422.80 214.85 416.28 217.38 410.08 219.08 C 403.88 220.77 398.08 223.91 392.23 226.23 C 386.37 228.55 380.86 231.59 375.23 234.23 C 369.60 236.87 364.35 239.95 359.23 243.23 C 354.11 246.51 348.64 249.31 343.75 252.75 C 338.87 256.19 334.19 259.81 329.70 263.70 C 325.20 267.58 319.97 270.64 315.75 274.75 C 311.54 278.86 307.76 282.50 303.75 286.75 C 299.75 291.00 295.00 294.76 291.30 299.30 C 287.61 303.85 283.81 308.34 279.92 312.92 C 276.03 317.50 273.40 322.90 269.75 327.75 C 266.11 332.60 262.72 337.41 259.77 342.77 C 256.82 348.13 253.58 353.24 250.92 358.92 C 248.27 364.61 245.35 369.99 242.92 375.92 C 240.50 381.85 237.96 387.68 235.93 393.93 C 233.89 400.18 231.51 406.34 229.98 412.98 C 228.44 419.61 226.67 426.17 225.00 433.00 C 223.32 439.83 223.69 447.98 222.00 455.00 C 220.31 462.02 221.47 470.61 221.00 478.00
M 432.00 237.00 
C 424.65 244.92 418.98 252.02 412.70 260.70 C 406.42 269.38 401.59 278.65 396.23 288.23 C 390.87 297.81 387.84 309.03 383.07 319.07 C 378.31 329.11 361.34 318.12 351.93 316.07 C 342.51 314.02 330.94 305.84 322.00 302.00
C 350.85 269.70 391.31 248.80 432.00 237.00 Z"/>
</g>
<g fill="None" fill-opacity="0.0" stroke="#092D70" stroke-opacity="1.00" stroke-width="0.3"><path d="
M 506.00 214.00 
C 506.15 217.97 505.65 222.04 506.00 226.00
C 506.20 228.33 506.72 230.56 507.00 233.00
C 507.80 236.75 509.43 240.47 509.00 245.00
C 509.00 245.00 509.00 245.50 509.00 246.00
C 509.21 246.43 510.85 246.71 511.00 247.00
C 511.00 240.67 511.00 234.33 511.00 228.00
C 637.75 230.31 751.66 344.27 754.00 471.00
C 754.29 472.37 755.51 475.26 757.00 476.00
C 758.01 476.50 763.19 476.88 764.00 477.00
C 768.70 477.28 773.56 479.03 778.00 479.00
C 778.43 423.06 757.56 373.14 729.00 327.00
C 727.72 325.35 726.11 323.97 725.00 322.00
C 720.75 314.46 714.52 308.00 709.00 301.00
C 707.13 298.97 704.79 297.10 703.00 295.00
C 697.91 289.04 692.01 283.14 686.00 278.00
C 683.86 276.17 681.97 273.82 680.00 272.00
C 629.31 231.98 570.37 203.01 504.00 204.00
C 504.53 207.70 505.84 209.94 506.00 214.00 Z"/>
</g>
<g fill="None" fill-opacity="0.0" stroke="#6A5B4E" stroke-opacity="1.00" stroke-width="0.3"><path d="
M 506.00 226.00 
C 505.65 222.04 506.15 217.97 506.00 214.00
C 505.78 217.77 505.19 222.02 506.00 226.00 Z"/>
</g>
<g fill="None" fill-opacity="0.0" stroke="#5D5E61" stroke-opacity="1.00" stroke-width="0.3"><path d="
M 490.00 244.00 
C 490.00 246.21 490.40 248.84 490.00 251.00
C 490.41 250.81 491.00 251.00 491.00 251.00
C 492.03 242.29 493.32 233.63 494.00 225.00
C 493.00 230.58 490.55 238.21 490.00 244.00 Z"/>
</g>
<g fill="None" fill-opacity="0.0" stroke="#FCFDFD" stroke-opacity="1.00" stroke-width="0.3"><path d="
M 450.00 336.00 
C 452.41 336.05 455.31 336.84 457.00 337.00
C 459.33 337.04 461.67 337.00 464.00 337.00
C 468.60 337.00 473.42 336.59 478.00 337.00
C 481.78 313.87 485.74 290.39 488.00 267.00
C 488.49 261.91 489.00 257.24 489.00 252.00
C 489.00 244.00 489.00 236.00 489.00 228.00
C 442.69 239.32 416.80 288.74 403.00 330.00
C 418.58 331.88 434.09 335.68 450.00 336.00 Z"/>
</g>
<g fill="None" fill-opacity="0.0" stroke="#7D9CBF" stroke-opacity="1.00" stroke-width="0.3"><path d="
M 489.00 252.00 
C 489.05 251.77 489.74 251.12 490.00 251.00
C 490.40 248.84 490.00 246.21 490.00 244.00
C 490.00 240.86 491.59 229.72 489.00 228.00
C 489.00 236.00 489.00 244.00 489.00 252.00 Z"/>
</g>
<g fill="None" fill-opacity="0.0" stroke="#FDFDFD" stroke-opacity="1.00" stroke-width="0.3"><path d="
M 511.00 247.00 
C 511.00 249.33 511.00 251.67 511.00 254.00
C 516.59 308.70 526.02 362.42 532.00 417.00
C 569.86 393.27 605.49 365.32 642.00 339.00
C 642.42 345.65 635.62 351.78 631.75 357.75 C 627.88 363.72 621.66 368.95 618.30 375.30 C 614.95 381.65 608.59 386.95 605.25 393.25 C 601.92 399.56 595.26 404.84 591.92 410.92 C 588.59 417.00 581.87 423.30 579.30 429.30 C 576.73 435.31 567.27 441.85 566.79 447.77 C 566.31 453.69 583.69 451.74 590.33 453.67 C 596.97 455.61 609.34 456.12 617.33 457.67 C 625.32 459.22 636.43 459.53 645.00 461.00 C 653.56 462.47 663.23 463.36 672.00 465.00 C 680.77 466.64 690.98 466.15 699.78 468.22 C 708.58 470.30 718.05 470.32 726.99 472.01 C 735.94 473.70 745.05 473.22 754.00 475.00
C 753.58 474.22 754.00 471.91 754.00 471.00
C 751.66 344.27 637.75 230.31 511.00 228.00
C 511.00 234.33 511.00 240.67 511.00 247.00 Z"/>
</g>
<g fill="None" fill-opacity="0.0" stroke="#7D6B5A" stroke-opacity="1.00" stroke-width="0.3"><path d="
M 509.00 245.00 
C 509.43 240.47 507.80 236.75 507.00 233.00
C 507.40 236.52 507.03 242.34 509.00 245.00 Z"/>
</g>
<g fill="None" fill-opacity="0.0" stroke="#F8FAFA" stroke-opacity="1.00" stroke-width="0.3"><path d="
M 432.00 237.00 
C 391.31 248.80 350.85 269.70 322.00 302.00
C 330.94 305.84 342.51 314.02 351.93 316.07 C 361.34 318.12 378.31 329.11 383.07 319.07 C 387.84 309.03 390.87 297.81 396.23 288.23 C 401.59 278.65 406.42 269.38 412.70 260.70 C 418.98 252.02 424.65 244.92 432.00 237.00 Z"/>
</g>
<g fill="None" fill-opacity="0.0" stroke="#626D7B" stroke-opacity="1.00" stroke-width="0.3"><path d="
M 509.00 247.00 
C 510.40 248.45 509.72 249.99 510.00 252.00
C 510.13 252.94 510.88 253.52 511.00 254.00
C 511.00 251.67 511.00 249.33 511.00 247.00
C 510.85 246.71 509.21 246.43 509.00 246.00
C 509.00 246.00 509.06 246.51 509.00 247.00 Z"/>
</g>
<g fill="None" fill-opacity="0.0" stroke="#95795A" stroke-opacity="1.00" stroke-width="0.3"><path d="
M 510.00 252.00 
C 509.72 249.99 510.40 248.45 509.00 247.00
C 508.74 249.14 509.41 250.47 510.00 252.00 Z"/>
</g>
<g fill="None" fill-opacity="0.0" stroke="#BFA381" stroke-opacity="1.00" stroke-width="0.3"><path d="
M 489.00 252.00 
C 489.00 257.24 488.49 261.91 488.00 267.00
C 489.13 262.22 490.37 256.32 491.00 251.00
C 491.00 251.00 490.41 250.81 490.00 251.00
C 489.74 251.12 489.05 251.77 489.00 252.00 Z"/>
</g>
<g fill="None" fill-opacity="0.0" stroke="#8192B1" stroke-opacity="1.00" stroke-width="0.3"><path d="
M 686.00 278.00 
C 684.03 276.03 682.29 273.80 680.00 272.00
C 681.97 273.82 683.86 276.17 686.00 278.00 Z"/>
</g>
<g fill="None" fill-opacity="0.0" stroke="#768CB2" stroke-opacity="1.00" stroke-width="0.3"><path d="
M 709.00 301.00 
C 707.23 298.76 705.02 297.02 703.00 295.00
C 704.79 297.10 707.13 298.97 709.00 301.00 Z"/>
</g>
<g fill="None" fill-opacity="0.0" stroke="#FCFCFD" stroke-opacity="1.00" stroke-width="0.3"><path d="
M 246.00 460.00 
C 246.00 461.67 246.00 463.33 246.00 465.00
C 246.00 467.26 246.30 469.76 246.00 472.00
C 253.33 471.99 260.67 472.00 268.00 472.00
C 270.63 472.00 273.38 472.23 276.00 472.00
C 289.30 470.83 302.76 466.57 316.00 466.00 C 329.24 465.43 342.88 460.12 356.00 461.00
C 355.52 458.37 356.75 455.85 357.00 454.00
C 357.00 452.67 357.00 451.33 357.00 450.00
C 357.00 448.33 356.97 446.67 357.00 445.00
C 357.03 442.86 357.84 440.43 358.00 439.00
C 358.00 436.67 357.94 434.33 358.00 432.00
C 358.06 429.74 358.72 427.61 359.00 426.00
C 359.89 414.89 361.97 403.07 363.00 392.00 C 364.03 380.93 369.73 371.17 370.00 360.00
C 370.01 359.50 370.00 359.00 370.00 359.00
C 365.98 353.74 361.22 343.81 356.00 340.00
C 346.66 337.50 336.03 331.94 327.23 328.77 C 318.43 325.60 309.51 314.78 302.75 321.75 C 295.99 328.73 291.60 336.10 285.92 343.92 C 280.24 351.74 276.43 360.01 271.77 368.77 C 267.11 377.53 263.54 386.36 259.92 395.92 C 256.31 405.49 253.51 415.61 250.93 425.93 C 248.34 436.25 246.00 448.83 246.00 460.00 Z"/>
</g>
<g fill="None" fill-opacity="0.0" stroke="#5A749D" stroke-opacity="1.00" stroke-width="0.3"><path d="
M 729.00 327.00 
C 727.80 325.05 726.25 323.75 725.00 322.00
C 726.11 323.97 727.72 325.35 729.00 327.00 Z"/>
</g>
<g fill="None" fill-opacity="0.0" stroke="#94A5C4" stroke-opacity="1.00" stroke-width="0.3"><path d="
M 457.00 337.00 
C 455.31 336.84 452.41 336.05 450.00 336.00
C 451.70 336.16 454.58 336.96 457.00 337.00 Z"/>
</g>
<g fill="None" fill-opacity="0.0" stroke="#9AAABE" stroke-opacity="1.00" stroke-width="0.3"><path d="
M 478.00 338.00 
C 478.00 338.00 477.92 337.49 478.00 337.00
C 473.42 336.59 468.60 337.00 464.00 337.00
C 467.97 337.38 473.24 338.43 478.00 338.00 Z"/>
</g>
<g fill="None" fill-opacity="0.0" stroke="#9E8854" stroke-opacity="1.00" stroke-width="0.3"><path d="
M 476.00 354.00 
C 476.92 350.16 481.11 341.99 478.00 338.00
C 477.63 343.42 477.29 348.84 476.00 354.00 Z"/>
</g>
<g fill="None" fill-opacity="0.0" stroke="#E2E1E1" stroke-opacity="1.00" stroke-width="0.3"><path d="
M 373.00 350.00 
C 372.41 347.52 375.13 344.58 371.07 343.93 C 367.01 343.28 366.56 342.99 363.00 342.00
C 365.91 343.99 370.39 347.48 373.00 350.00 Z"/>
</g>
<g fill="None" fill-opacity="0.0" stroke="#FBFBFB" stroke-opacity="1.00" stroke-width="0.3"><path d="
M 392.00 363.00 
C 391.98 363.50 392.00 364.00 392.00 364.00
C 416.92 381.83 441.81 401.20 468.00 417.00
C 471.22 397.78 471.62 378.19 475.00 359.00
C 466.54 358.99 458.25 357.74 450.00 357.00 C 441.75 356.26 434.10 356.74 426.07 354.93 C 418.04 353.11 412.20 353.79 404.00 351.00 C 395.80 348.21 392.30 354.98 392.00 363.00 Z"/>
</g>
<g fill="None" fill-opacity="0.0" stroke="#8F6E51" stroke-opacity="1.00" stroke-width="0.3"><path d="
M 384.00 359.00 
C 381.87 355.74 378.09 354.26 375.00 352.00
C 377.80 354.69 380.59 356.88 384.00 359.00 Z"/>
</g>
<g fill="None" fill-opacity="0.0" stroke="#464D5B" stroke-opacity="1.00" stroke-width="0.3"><path d="
M 475.00 359.00 
C 475.17 358.04 475.66 355.40 476.00 354.00
C 475.70 355.19 474.13 357.11 475.00 359.00 Z"/>
</g>
<g fill="None" fill-opacity="0.0" stroke="#AD885B" stroke-opacity="1.00" stroke-width="0.3"><path d="
M 370.00 360.00 
C 371.23 361.18 373.07 362.66 374.00 364.00
C 372.78 361.79 371.58 360.83 370.00 359.00
C 370.00 359.00 370.01 359.50 370.00 360.00 Z"/>
</g>
<g fill="None" fill-opacity="0.0" stroke="#836D5C" stroke-opacity="1.00" stroke-width="0.3"><path d="
M 392.00 364.00 
C 392.00 364.00 391.98 363.50 392.00 363.00
C 389.08 362.41 387.35 360.80 385.00 359.00
C 386.60 361.29 388.94 363.99 392.00 364.00 Z"/>
</g>
<g fill="None" fill-opacity="0.0" stroke="#0A2C6E" stroke-opacity="1.00" stroke-width="0.3"><path d="
M 359.00 426.00 
C 358.84 427.99 358.15 430.66 358.00 432.00
C 357.94 434.33 358.00 436.67 358.00 439.00
C 358.00 441.00 358.07 443.01 358.00 445.00
C 357.94 446.85 357.16 448.82 357.00 450.00
C 357.00 451.33 357.00 452.67 357.00 454.00
C 357.00 456.26 357.30 458.76 357.00 461.00
C 362.31 460.12 367.61 459.47 373.00 459.00
C 374.13 458.78 376.21 457.15 378.00 458.00
C 378.07 454.67 377.91 451.33 378.00 448.00
C 378.06 445.88 378.84 443.43 379.00 442.00
C 379.27 432.26 382.00 421.46 382.00 412.00 C 382.00 402.54 388.23 393.06 387.00 384.00
C 382.45 378.07 377.70 370.72 374.00 364.00
C 373.07 362.66 371.23 361.18 370.00 360.00
C 369.73 371.17 364.03 380.93 363.00 392.00 C 361.97 403.07 359.89 414.89 359.00 426.00 Z"/>
</g>
<g fill="None" fill-opacity="0.0" stroke="#FCFCFC" stroke-opacity="1.00" stroke-width="0.3"><path d="
M 379.00 442.00 
C 378.94 444.12 378.16 446.57 378.00 448.00
C 377.91 451.33 378.07 454.67 378.00 458.00
C 396.56 454.85 415.56 453.51 434.00 450.00
C 419.50 427.30 403.35 405.33 387.00 384.00
C 388.23 393.06 382.00 402.54 382.00 412.00 C 382.00 421.46 379.27 432.26 379.00 442.00 Z"/>
</g>
<g fill="None" fill-opacity="0.0" stroke="#7A8EB1" stroke-opacity="1.00" stroke-width="0.3"><path d="
M 358.00 432.00 
C 358.15 430.66 358.84 427.99 359.00 426.00
C 358.72 427.61 358.06 429.74 358.00 432.00 Z"/>
</g>
<g fill="None" fill-opacity="0.0" stroke="#7A8FAF" stroke-opacity="1.00" stroke-width="0.3"><path d="
M 357.00 445.00 
C 357.05 444.85 358.00 445.00 358.00 445.00
C 358.07 443.01 358.00 441.00 358.00 439.00
C 357.84 440.43 357.03 442.86 357.00 445.00 Z"/>
</g>
<g fill="None" fill-opacity="0.0" stroke="#788DB0" stroke-opacity="1.00" stroke-width="0.3"><path d="
M 378.00 448.00 
C 378.16 446.57 378.94 444.12 379.00 442.00
C 378.84 443.43 378.06 445.88 378.00 448.00 Z"/>
</g>
<g fill="None" fill-opacity="0.0" stroke="#3F5A8C" stroke-opacity="1.00" stroke-width="0.3"><path d="
M 357.00 450.00 
C 357.16 448.82 357.94 446.85 358.00 445.00
C 358.00 445.00 357.05 444.85 357.00 445.00
C 356.97 446.67 357.00 448.33 357.00 450.00 Z"/>
</g>
<g fill="None" fill-opacity="0.0" stroke="#8A9BB2" stroke-opacity="1.00" stroke-width="0.3"><path d="
M 356.00 461.00 
C 356.00 461.00 356.51 461.08 357.00 461.00
C 357.30 458.76 357.00 456.26 357.00 454.00
C 356.75 455.85 355.52 458.37 356.00 461.00 Z"/>
</g>
<g fill="None" fill-opacity="0.0" stroke="#806B54" stroke-opacity="1.00" stroke-width="0.3"><path d="
M 373.00 459.00 
C 374.91 458.83 376.62 458.32 378.00 458.00
C 376.21 457.15 374.13 458.78 373.00 459.00 Z"/>
</g>
<g fill="None" fill-opacity="0.0" stroke="#7A94B6" stroke-opacity="1.00" stroke-width="0.3"><path d="
M 245.00 465.00 
C 245.01 464.93 246.00 465.00 246.00 465.00
C 246.00 463.33 246.00 461.67 246.00 460.00
C 245.83 461.19 245.07 463.15 245.00 465.00 Z"/>
</g>
<g fill="None" fill-opacity="0.0" stroke="#BAC8DC" stroke-opacity="1.00" stroke-width="0.3"><path d="
M 245.00 472.00 
C 245.01 472.07 246.00 472.00 246.00 472.00
C 246.30 469.76 246.00 467.26 246.00 465.00
C 246.00 465.00 245.01 464.93 245.00 465.00
C 244.92 467.22 244.71 469.80 245.00 472.00 Z"/>
</g>
<g fill="None" fill-opacity="0.0" stroke="#4C6082" stroke-opacity="1.00" stroke-width="0.3"><path d="
M 754.00 475.00 
C 754.90 475.18 756.15 475.71 757.00 476.00
C 755.51 475.26 754.29 472.37 754.00 471.00
C 754.00 471.91 753.58 474.22 754.00 475.00 Z"/>
</g>
<g fill="None" fill-opacity="0.0" stroke="#597291" stroke-opacity="1.00" stroke-width="0.3"><path d="
M 262.00 473.00 
C 264.12 472.94 266.57 472.16 268.00 472.00
C 260.67 472.00 253.33 471.99 246.00 472.00
C 246.00 472.00 245.01 472.07 245.00 472.00
C 247.53 474.63 258.14 473.11 262.00 473.00 Z"/>
</g>
<g fill="None" fill-opacity="0.0" stroke="#8C8062" stroke-opacity="1.00" stroke-width="0.3"><path d="
M 262.00 473.00 
C 262.00 473.00 261.99 474.00 262.00 474.00
C 266.99 473.80 271.64 472.89 276.00 472.00
C 273.38 472.23 270.63 472.00 268.00 472.00
C 266.57 472.16 264.12 472.94 262.00 473.00 Z"/>
</g>
<g fill="None" fill-opacity="0.0" stroke="#74695C" stroke-opacity="1.00" stroke-width="0.3"><path d="
M 238.00 477.00 
C 242.77 477.13 246.94 475.84 251.00 475.00
C 246.47 475.51 241.99 476.12 238.00 477.00 Z"/>
</g>
<g fill="None" fill-opacity="0.0" stroke="#776952" stroke-opacity="1.00" stroke-width="0.3"><path d="
M 764.00 477.00 
C 763.19 476.88 758.01 476.50 757.00 476.00
C 759.17 476.73 761.25 476.84 764.00 477.00 Z"/>
</g>
<g fill="None" fill-opacity="0.0" stroke="#58595F" stroke-opacity="1.00" stroke-width="0.3"><path d="
M 230.00 478.00 
C 232.06 478.25 233.62 477.25 235.00 477.00
C 233.06 476.99 231.33 476.72 230.00 478.00 Z"/>
</g>
<g fill="None" fill-opacity="0.0" stroke="#545861" stroke-opacity="1.00" stroke-width="0.3"><path d="
M 229.00 478.00 
C 226.33 478.00 223.67 478.00 221.00 478.00
C 223.46 478.14 226.25 480.03 229.00 478.00 Z"/>
</g>
<g fill="None" fill-opacity="0.0" stroke="#A78158" stroke-opacity="1.00" stroke-width="0.3"><path d="
M 221.00 487.00 
C 221.00 486.96 222.00 487.00 222.00 487.00
C 224.33 487.00 226.67 487.00 229.00 487.00
C 226.27 484.98 223.59 486.75 221.00 487.00 Z"/>
</g>
<g fill="None" fill-opacity="0.0" stroke="#5E739D" stroke-opacity="1.00" stroke-width="0.3"><path d="
M 222.00 495.00 
C 222.00 492.37 222.24 489.62 222.00 487.00
C 222.00 487.00 221.00 486.96 221.00 487.00
C 220.74 489.87 221.79 492.85 222.00 495.00 Z"/>
</g>
<g fill="None" fill-opacity="0.0" stroke="#082C6F" stroke-opacity="1.00" stroke-width="0.3"><path d="
M 222.00 495.00 
C 222.00 498.66 221.93 502.34 222.00 506.00
C 222.16 507.69 222.86 510.69 223.00 513.00
C 230.73 642.42 358.73 761.00 488.00 761.00
C 490.63 761.00 493.38 760.76 496.00 761.00
C 496.00 759.35 496.14 757.64 496.00 756.00
C 495.54 750.67 493.46 745.25 493.00 740.00
C 492.46 737.36 492.00 734.26 492.00 731.00
C 492.00 730.00 491.97 729.00 492.00 728.00
C 491.56 725.98 490.75 723.68 491.00 721.00
C 491.00 721.00 490.95 720.49 491.00 720.00
C 490.75 719.75 490.00 720.00 490.00 720.00
C 490.00 723.38 491.68 735.15 489.00 737.00
C 483.70 740.66 474.18 732.86 469.25 730.75 C 464.33 728.63 457.85 723.54 453.25 719.75 C 448.66 715.96 444.01 710.50 440.25 705.75 C 436.48 701.01 432.17 696.58 428.75 691.25 C 425.33 685.92 422.30 679.64 419.08 673.92 C 415.86 668.21 412.77 661.95 410.22 655.78 C 407.68 649.60 404.20 642.69 403.00 636.00
C 422.53 633.20 441.75 629.04 462.00 629.00
C 463.75 628.83 466.60 628.05 469.00 628.00
C 472.00 627.94 475.00 628.05 478.00 628.00
C 478.00 626.33 478.00 624.67 478.00 623.00
C 478.00 622.50 477.97 621.50 478.00 621.00
C 477.14 618.98 476.31 615.44 476.00 613.00
C 475.71 610.70 476.47 608.72 475.00 607.00
C 473.69 607.45 471.40 607.00 470.00 607.00
C 444.74 607.00 420.09 611.13 396.00 616.00
C 394.45 611.40 392.08 607.03 392.00 602.00
C 386.19 606.45 379.29 610.85 373.00 615.00
C 377.28 622.66 367.88 622.74 363.00 624.00
C 360.98 624.52 358.90 625.25 357.00 626.00
C 343.86 631.22 329.09 634.62 316.92 642.92 C 304.75 651.23 295.01 632.12 289.00 622.00
C 287.77 620.35 286.17 618.89 285.00 617.00
C 281.37 611.13 278.02 605.04 275.00 599.00
C 273.51 596.62 272.19 594.75 271.00 592.00
C 257.88 561.59 248.59 533.71 246.00 500.00
C 245.25 490.19 252.83 493.00 262.00 493.00
C 261.96 493.00 262.00 492.00 262.00 492.00
C 259.99 491.81 257.16 491.38 255.00 491.00
C 254.52 490.92 253.42 490.23 253.00 490.00
C 249.11 489.17 244.14 491.32 241.00 489.00
C 240.50 489.00 240.00 489.00 240.00 489.00
C 236.94 489.00 234.42 488.99 232.00 488.00
C 230.42 487.81 231.07 487.71 230.00 487.00
C 230.00 487.00 229.50 487.00 229.00 487.00
C 226.67 487.00 224.33 487.00 222.00 487.00
C 222.24 489.62 222.00 492.37 222.00 495.00
M 333.00 672.00 
C 329.99 669.43 327.08 666.38 324.00 664.00
C 324.83 662.53 326.07 660.75 328.00 661.00
C 344.58 651.48 362.92 646.28 381.00 641.00
C 391.69 671.78 406.83 701.23 429.00 726.00
C 393.68 715.90 361.41 696.02 333.00 672.00 Z"/>
</g>
<g fill="None" fill-opacity="0.0" stroke="#AB8750" stroke-opacity="1.00" stroke-width="0.3"><path d="
M 232.00 488.00 
C 234.92 488.36 237.74 487.32 240.00 489.00
C 240.00 489.00 240.50 489.00 241.00 489.00
C 244.92 489.00 249.87 488.28 253.00 490.00
C 253.42 490.23 254.52 490.92 255.00 491.00
C 247.46 488.22 239.23 487.00 230.00 487.00
C 231.07 487.71 230.42 487.81 232.00 488.00 Z"/>
</g>
<g fill="None" fill-opacity="0.0" stroke="#A48762" stroke-opacity="1.00" stroke-width="0.3"><path d="
M 738.00 491.00 
C 743.32 489.99 748.62 489.87 754.00 489.00
C 756.89 488.53 762.17 487.27 765.00 487.00
C 755.41 487.00 746.43 488.04 738.00 491.00 Z"/>
</g>
<g fill="None" fill-opacity="0.0" stroke="#092D71" stroke-opacity="1.00" stroke-width="0.3"><path d="
M 754.00 489.00 
C 750.92 493.40 755.24 501.25 753.02 507.02 C 750.81 512.80 753.84 518.33 751.02 525.02 C 748.21 531.72 750.52 532.90 747.67 541.67 C 744.82 550.44 741.80 562.45 738.07 571.07 C 734.35 579.70 736.07 576.75 732.08 585.08 C 728.08 593.40 723.06 602.36 718.25 610.25 C 713.43 618.14 707.65 626.88 702.08 634.08 C 696.51 641.28 698.16 638.97 693.00 645.00
C 690.84 647.53 688.28 649.72 686.00 652.00
C 641.79 703.73 576.54 732.01 511.00 737.00
C 511.00 731.33 511.00 725.67 511.00 720.00
C 510.92 720.19 509.06 719.84 509.00 720.00
C 508.27 724.59 507.40 729.50 507.00 734.00
C 506.63 738.19 507.50 742.47 506.00 746.00
C 506.00 746.50 505.97 747.50 506.00 748.00
C 506.16 750.54 505.17 753.22 505.00 755.00
C 504.97 756.98 505.18 759.03 505.00 761.00
C 509.25 758.00 517.37 762.04 523.00 760.00 C 528.63 757.96 533.13 759.87 539.99 757.99 C 546.85 756.12 546.85 757.28 555.99 754.99 C 565.13 752.71 576.89 750.13 585.93 746.93 C 594.96 743.72 604.24 739.79 612.92 735.92 C 621.60 732.06 629.80 727.63 637.77 722.77 C 645.74 717.91 653.34 713.32 660.75 707.75 C 668.16 702.19 674.86 697.10 682.00 691.00
C 683.67 689.33 685.22 687.52 687.00 686.00
C 712.54 664.18 730.83 639.33 746.08 610.08 C 761.32 580.82 777.00 541.32 777.00 507.00
C 777.00 503.57 777.74 499.69 778.00 497.00
C 778.00 493.71 777.70 490.27 778.00 487.00
C 773.67 487.00 769.33 487.00 765.00 487.00
C 762.17 487.27 756.89 488.53 754.00 489.00 Z"/>
</g>
<g fill="None" fill-opacity="0.0" stroke="#CAD0DE" stroke-opacity="1.00" stroke-width="0.3"><path d="
M 778.00 497.00 
C 778.00 498.00 777.97 499.00 778.00 500.00
C 778.45 496.31 779.40 491.46 779.00 487.00
C 779.00 487.00 778.50 487.00 778.00 487.00
C 777.70 490.27 778.00 493.71 778.00 497.00 Z"/>
</g>
<g fill="None" fill-opacity="0.0" stroke="#484A61" stroke-opacity="1.00" stroke-width="0.3"><path d="
M 240.00 489.00 
C 237.74 487.32 234.92 488.36 232.00 488.00
C 234.42 488.99 236.94 489.00 240.00 489.00 Z"/>
</g>
<g fill="None" fill-opacity="0.0" stroke="#40495D" stroke-opacity="1.00" stroke-width="0.3"><path d="
M 253.00 490.00 
C 249.87 488.28 244.92 489.00 241.00 489.00
C 244.14 491.32 249.11 489.17 253.00 490.00 Z"/>
</g>
<g fill="None" fill-opacity="0.0" stroke="#FDFDFD" stroke-opacity="1.00" stroke-width="0.3"><path d="
M 738.00 491.00 
C 681.61 500.88 623.08 506.38 566.00 515.00
C 585.68 552.48 618.52 582.85 639.00 620.00
C 639.95 621.73 640.82 623.43 642.00 625.00
C 640.18 625.55 639.53 623.25 638.00 623.00
C 602.41 598.34 568.33 571.20 532.00 548.00
C 528.47 602.48 513.96 655.54 511.00 710.00
C 510.82 713.31 511.00 716.68 511.00 720.00
C 511.00 725.67 511.00 731.33 511.00 737.00
C 576.54 732.01 641.79 703.73 686.00 652.00
C 688.16 649.47 690.72 647.28 693.00 645.00
C 698.16 638.97 696.51 641.28 702.08 634.08 C 707.65 626.88 713.43 618.14 718.25 610.25 C 723.06 602.36 728.08 593.40 732.08 585.08 C 736.07 576.75 734.35 579.70 738.07 571.07 C 741.80 562.45 744.82 550.44 747.67 541.67 C 750.52 532.90 748.21 531.72 751.02 525.02 C 753.84 518.33 750.81 512.80 753.02 507.02 C 755.24 501.25 750.92 493.40 754.00 489.00
C 748.62 489.87 743.32 489.99 738.00 491.00 Z"/>
</g>
<g fill="None" fill-opacity="0.0" stroke="#735E53" stroke-opacity="1.00" stroke-width="0.3"><path d="
M 262.00 493.00 
C 264.58 493.00 267.45 492.63 270.00 493.00
C 267.77 491.36 264.91 492.27 262.00 492.00
C 262.00 492.00 261.96 493.00 262.00 493.00 Z"/>
</g>
<g fill="None" fill-opacity="0.0" stroke="#7B87AC" stroke-opacity="1.00" stroke-width="0.3"><path d="
M 246.00 500.00 
C 246.12 498.01 245.91 495.99 246.00 494.00
C 254.33 494.00 262.67 494.00 271.00 494.00
C 270.77 493.95 270.30 493.22 270.00 493.00
C 267.45 492.63 264.58 493.00 262.00 493.00
C 252.83 493.00 245.25 490.19 246.00 500.00 Z"/>
</g>
<g fill="None" fill-opacity="0.0" stroke="#FCFCFD" stroke-opacity="1.00" stroke-width="0.3"><path d="
M 246.00 500.00 
C 248.59 533.71 257.88 561.59 271.00 592.00
C 272.28 594.19 273.78 596.56 275.00 599.00
C 278.02 605.04 281.37 611.13 285.00 617.00
C 286.41 618.81 287.77 619.93 289.00 622.00
C 295.01 632.12 304.75 651.23 316.92 642.92 C 329.09 634.62 343.86 631.22 357.00 626.00
C 353.24 624.02 360.80 617.88 362.75 615.75 C 364.69 613.61 368.08 607.58 370.00 605.00
C 371.18 597.24 365.68 589.12 365.01 580.99 C 364.33 572.86 361.75 563.60 361.00 555.00 C 360.26 546.40 358.00 537.04 358.00 528.00
C 357.78 525.72 357.28 521.87 357.00 519.00
C 356.65 515.34 356.19 511.71 357.00 508.00
C 357.00 507.32 357.29 505.60 357.00 505.00
C 356.65 504.89 356.21 504.03 356.00 504.00
C 327.35 502.45 299.86 494.00 271.00 494.00
C 262.67 494.00 254.33 494.00 246.00 494.00
C 245.91 495.99 246.12 498.01 246.00 500.00 Z"/>
</g>
<g fill="None" fill-opacity="0.0" stroke="#7384AB" stroke-opacity="1.00" stroke-width="0.3"><path d="
M 777.00 507.00 
C 777.17 505.25 778.07 502.50 778.00 500.00
C 777.97 499.00 778.00 498.00 778.00 497.00
C 777.74 499.69 777.00 503.57 777.00 507.00 Z"/>
</g>
<g fill="None" fill-opacity="0.0" stroke="#A48B6D" stroke-opacity="1.00" stroke-width="0.3"><path d="
M 357.00 505.00 
C 358.16 505.36 359.78 504.88 361.00 505.00
C 359.55 504.64 358.04 504.11 356.00 504.00
C 356.21 504.03 356.65 504.89 357.00 505.00 Z"/>
</g>
<g fill="None" fill-opacity="0.0" stroke="#092B6F" stroke-opacity="1.00" stroke-width="0.3"><path d="
M 357.00 508.00 
C 357.00 511.61 356.65 515.41 357.00 519.00
C 357.23 521.42 358.00 524.91 358.00 528.00
C 358.00 537.04 360.26 546.40 361.00 555.00 C 361.75 563.60 364.33 572.86 365.01 580.99 C 365.68 589.12 371.18 597.24 370.00 605.00
C 375.66 597.39 381.30 588.43 387.00 581.00
C 388.10 571.75 381.84 561.88 382.00 552.00 C 382.16 542.12 379.00 531.36 379.00 521.00
C 378.83 519.56 378.10 517.06 378.00 515.00
C 377.86 512.08 378.32 509.61 377.00 507.00
C 371.64 507.58 366.13 505.51 361.00 505.00
C 359.78 504.88 358.16 505.36 357.00 505.00
C 357.29 505.60 357.00 507.32 357.00 508.00 Z"/>
</g>
<g fill="None" fill-opacity="0.0" stroke="#8597B8" stroke-opacity="1.00" stroke-width="0.3"><path d="
M 223.00 513.00 
C 222.86 510.69 222.16 507.69 222.00 506.00
C 222.05 508.50 222.73 511.13 223.00 513.00 Z"/>
</g>
<g fill="None" fill-opacity="0.0" stroke="#BBC2CF" stroke-opacity="1.00" stroke-width="0.3"><path d="
M 378.00 515.00 
C 378.00 514.99 379.00 515.00 379.00 515.00
C 378.97 512.48 379.67 509.07 378.00 507.00
C 378.00 507.00 377.49 506.95 377.00 507.00
C 378.32 509.61 377.86 512.08 378.00 515.00 Z"/>
</g>
<g fill="None" fill-opacity="0.0" stroke="#FCFCFC" stroke-opacity="1.00" stroke-width="0.3"><path d="
M 379.00 515.00 
C 379.03 517.00 379.00 519.00 379.00 521.00
C 379.00 531.36 382.16 542.12 382.00 552.00 C 381.84 561.88 388.10 571.75 387.00 581.00
C 404.31 560.42 419.63 537.53 434.00 515.00
C 416.07 510.16 395.52 513.13 378.00 507.00
C 379.67 509.07 378.97 512.48 379.00 515.00 Z"/>
</g>
<g fill="None" fill-opacity="0.0" stroke="#BECCDD" stroke-opacity="1.00" stroke-width="0.3"><path d="
M 357.00 519.00 
C 356.65 515.41 357.00 511.61 357.00 508.00
C 356.19 511.71 356.65 515.34 357.00 519.00 Z"/>
</g>
<g fill="None" fill-opacity="0.0" stroke="#8099B9" stroke-opacity="1.00" stroke-width="0.3"><path d="
M 379.00 521.00 
C 379.00 519.00 379.03 517.00 379.00 515.00
C 379.00 515.00 378.00 514.99 378.00 515.00
C 378.10 517.06 378.83 519.56 379.00 521.00 Z"/>
</g>
<g fill="None" fill-opacity="0.0" stroke="#7F94BA" stroke-opacity="1.00" stroke-width="0.3"><path d="
M 358.00 528.00 
C 358.00 524.91 357.23 521.42 357.00 519.00
C 357.28 521.87 357.78 525.72 358.00 528.00 Z"/>
</g>
<g fill="None" fill-opacity="0.0" stroke="#FBFBFB" stroke-opacity="1.00" stroke-width="0.3"><path d="
M 392.00 602.00 
C 392.08 607.03 394.45 611.40 396.00 616.00
C 420.09 611.13 444.74 607.00 470.00 607.00
C 471.24 606.83 473.04 605.37 475.00 606.00
C 473.20 586.52 469.99 567.41 468.00 548.00
C 442.27 564.90 416.50 583.22 392.00 602.00 Z"/>
</g>
<g fill="None" fill-opacity="0.0" stroke="#8194B4" stroke-opacity="1.00" stroke-width="0.3"><path d="
M 275.00 599.00 
C 273.78 596.56 272.28 594.19 271.00 592.00
C 272.19 594.75 273.51 596.62 275.00 599.00 Z"/>
</g>
<g fill="None" fill-opacity="0.0" stroke="#8196B6" stroke-opacity="1.00" stroke-width="0.3"><path d="
M 470.00 607.00 
C 471.40 607.00 473.69 607.45 475.00 607.00
C 475.00 607.00 474.95 606.50 475.00 606.00
C 473.04 605.37 471.24 606.83 470.00 607.00 Z"/>
</g>
<g fill="None" fill-opacity="0.0" stroke="#998455" stroke-opacity="1.00" stroke-width="0.3"><path d="
M 478.00 621.00 
C 478.23 617.27 476.60 615.50 476.00 613.00
C 476.31 615.44 477.14 618.98 478.00 621.00 Z"/>
</g>
<g fill="None" fill-opacity="0.0" stroke="#DFE2E6" stroke-opacity="1.00" stroke-width="0.3"><path d="
M 363.00 624.00 
C 367.88 622.74 377.28 622.66 373.00 615.00
C 369.30 617.44 366.55 621.62 363.00 624.00 Z"/>
</g>
<g fill="None" fill-opacity="0.0" stroke="#7D92B0" stroke-opacity="1.00" stroke-width="0.3"><path d="
M 289.00 622.00 
C 287.77 619.93 286.41 618.81 285.00 617.00
C 286.17 618.89 287.77 620.35 289.00 622.00 Z"/>
</g>
<g fill="None" fill-opacity="0.0" stroke="#53493D" stroke-opacity="1.00" stroke-width="0.3"><path d="
M 638.00 623.00 
C 639.53 623.25 640.18 625.55 642.00 625.00
C 640.82 623.43 639.95 621.73 639.00 620.00
C 638.96 620.70 637.53 621.45 638.00 623.00 Z"/>
</g>
<g fill="None" fill-opacity="0.0" stroke="#A18965" stroke-opacity="1.00" stroke-width="0.3"><path d="
M 478.00 628.00 
C 478.01 626.21 479.02 625.26 478.00 623.00
C 478.00 624.67 478.00 626.33 478.00 628.00 Z"/>
</g>
<g fill="None" fill-opacity="0.0" stroke="#94A0BA" stroke-opacity="1.00" stroke-width="0.3"><path d="
M 462.00 629.00 
C 464.41 628.95 467.30 628.16 469.00 628.00
C 466.60 628.05 463.75 628.83 462.00 629.00 Z"/>
</g>
<g fill="None" fill-opacity="0.0" stroke="#FBFCFC" stroke-opacity="1.00" stroke-width="0.3"><path d="
M 462.00 629.00 
C 441.75 629.04 422.53 633.20 403.00 636.00
C 404.20 642.69 407.68 649.60 410.22 655.78 C 412.77 661.95 415.86 668.21 419.08 673.92 C 422.30 679.64 425.33 685.92 428.75 691.25 C 432.17 696.58 436.48 701.01 440.25 705.75 C 444.01 710.50 448.66 715.96 453.25 719.75 C 457.85 723.54 464.33 728.63 469.25 730.75 C 474.18 732.86 483.70 740.66 489.00 737.00
C 489.00 728.33 489.00 719.67 489.00 711.00
C 489.00 698.35 486.20 686.37 485.00 674.00
C 484.42 671.00 483.46 667.52 483.00 664.00
C 481.50 652.47 477.93 639.44 478.00 628.00
C 475.00 628.05 472.00 627.94 469.00 628.00
C 467.30 628.16 464.41 628.95 462.00 629.00 Z"/>
</g>
<g fill="None" fill-opacity="0.0" stroke="#F8FAFA" stroke-opacity="1.00" stroke-width="0.3"><path d="
M 328.00 661.00 
C 327.04 661.74 325.45 662.64 325.00 664.00
C 327.96 666.21 330.90 669.02 333.00 672.00
C 361.41 696.02 393.68 715.90 429.00 726.00
C 406.83 701.23 391.69 671.78 381.00 641.00
C 362.92 646.28 344.58 651.48 328.00 661.00 Z"/>
</g>
<g fill="None" fill-opacity="0.0" stroke="#A7B3C9" stroke-opacity="1.00" stroke-width="0.3"><path d="
M 686.00 652.00 
C 688.28 649.72 690.84 647.53 693.00 645.00
C 690.72 647.28 688.16 649.47 686.00 652.00 Z"/>
</g>
<g fill="None" fill-opacity="0.0" stroke="#839BBB" stroke-opacity="1.00" stroke-width="0.3"><path d="
M 333.00 672.00 
C 330.90 669.02 327.96 666.21 325.00 664.00
C 325.45 662.64 327.04 661.74 328.00 661.00
C 326.07 660.75 324.83 662.53 324.00 664.00
C 327.08 666.38 329.99 669.43 333.00 672.00 Z"/>
</g>
<g fill="None" fill-opacity="0.0" stroke="#DEC7A5" stroke-opacity="1.00" stroke-width="0.3"><path d="
M 485.00 674.00 
C 484.65 670.35 483.72 667.10 483.00 664.00
C 483.46 667.52 484.42 671.00 485.00 674.00 Z"/>
</g>
<g fill="None" fill-opacity="0.0" stroke="#486296" stroke-opacity="1.00" stroke-width="0.3"><path d="
M 682.00 691.00 
C 683.78 689.48 685.33 687.67 687.00 686.00
C 685.22 687.52 683.67 689.33 682.00 691.00 Z"/>
</g>
<g fill="None" fill-opacity="0.0" stroke="#5D6F7D" stroke-opacity="1.00" stroke-width="0.3"><path d="
M 509.00 720.00 
C 509.06 719.84 510.92 720.19 511.00 720.00
C 511.00 716.68 510.82 713.31 511.00 710.00
C 510.57 712.68 509.49 716.92 509.00 720.00 Z"/>
</g>
<g fill="None" fill-opacity="0.0" stroke="#809EB9" stroke-opacity="1.00" stroke-width="0.3"><path d="
M 489.00 737.00 
C 491.68 735.15 490.00 723.38 490.00 720.00
C 490.00 718.02 490.16 715.97 490.00 714.00
C 489.90 712.74 489.16 711.74 489.00 711.00
C 489.00 719.67 489.00 728.33 489.00 737.00 Z"/>
</g>
<g fill="None" fill-opacity="0.0" stroke="#887E71" stroke-opacity="1.00" stroke-width="0.3"><path d="
M 490.00 720.00 
C 490.00 720.00 490.75 719.75 491.00 720.00
C 491.26 717.60 490.43 715.75 490.00 714.00
C 490.16 715.97 490.00 718.02 490.00 720.00 Z"/>
</g>
<g fill="None" fill-opacity="0.0" stroke="#5C5E5C" stroke-opacity="1.00" stroke-width="0.3"><path d="
M 492.00 728.00 
C 492.07 725.51 492.36 722.84 491.00 721.00
C 490.75 723.68 491.56 725.98 492.00 728.00 Z"/>
</g>
<g fill="None" fill-opacity="0.0" stroke="#575759" stroke-opacity="1.00" stroke-width="0.3"><path d="
M 493.00 740.00 
C 492.72 736.83 492.58 733.63 492.00 731.00
C 492.00 734.26 492.46 737.36 493.00 740.00 Z"/>
</g>
<g fill="None" fill-opacity="0.0" stroke="#846748" stroke-opacity="1.00" stroke-width="0.3"><path d="
M 506.00 746.00 
C 507.50 742.47 506.63 738.19 507.00 734.00
C 506.28 737.52 506.00 741.79 506.00 746.00 Z"/>
</g>
<g fill="None" fill-opacity="0.0" stroke="#6E5B4E" stroke-opacity="1.00" stroke-width="0.3"><path d="
M 505.00 755.00 
C 505.17 753.22 506.16 750.54 506.00 748.00
C 505.07 750.18 505.04 752.21 505.00 755.00 Z"/>
</g>
<g fill="None" fill-opacity="0.0" stroke="#B38F59" stroke-opacity="1.00" stroke-width="0.3"><path d="
M 496.00 761.00 
C 496.00 761.50 496.00 762.00 496.00 762.00
C 496.00 763.33 496.00 764.67 496.00 766.00
C 496.13 766.22 497.00 766.00 497.00 766.00
C 497.00 762.43 496.60 758.95 496.00 756.00
C 496.14 757.64 496.00 759.35 496.00 761.00 Z"/>
</g>
<g fill="None" fill-opacity="0.0" stroke="#919EB8" stroke-opacity="1.00" stroke-width="0.3"><path d="
M 496.00 762.00 
C 496.00 762.00 496.00 761.50 496.00 761.00
C 493.38 760.76 490.63 761.00 488.00 761.00
C 490.10 761.20 493.12 762.26 496.00 762.00 Z"/>
</g>
<g fill="None" fill-opacity="0.0" stroke="#E5D1B3" stroke-opacity="1.00" stroke-width="0.3"><path d="
M 497.00 775.00 
C 497.00 772.00 497.00 769.00 497.00 766.00
C 497.00 766.00 496.13 766.22 496.00 766.00
C 496.00 769.09 496.77 772.58 497.00 775.00 Z"/>
</g>
<g fill="#FEFEFE" fill-opacity="1.00" stroke="None">
<path d="
M 0.00 1000.00 
L 1000.00 1000.00
L 1000.00 0.00
L 0.00 0.00
L 0.00 1000.00
M 504.00 204.00 
C 570.37 203.01 629.31 231.98 680.00 272.00
C 682.29 273.80 684.03 276.03 686.00 278.00
C 692.01 283.14 697.91 289.04 703.00 295.00
C 705.02 297.02 707.23 298.76 709.00 301.00
C 714.52 308.00 720.75 314.46 725.00 322.00
C 726.25 323.75 727.80 325.05 729.00 327.00
C 757.56 373.14 778.43 423.06 778.00 479.00
C 790.29 478.93 804.63 479.18 817.00 482.00
C 807.08 489.75 791.42 485.07 779.00 487.00
C 779.40 491.46 778.45 496.31 778.00 500.00
C 778.07 502.50 777.17 505.25 777.00 507.00
C 777.00 541.32 761.32 580.82 746.08 610.08 C 730.83 639.33 712.54 664.18 687.00 686.00
C 685.33 687.67 683.78 689.48 682.00 691.00
C 674.86 697.10 668.16 702.19 660.75 707.75 C 653.34 713.32 645.74 717.91 637.77 722.77 C 629.80 727.63 621.60 732.06 612.92 735.92 C 604.24 739.79 594.96 743.72 585.93 746.93 C 576.89 750.13 565.13 752.71 555.99 754.99 C 546.85 757.28 546.85 756.12 539.99 757.99 C 533.13 759.87 528.63 757.96 523.00 760.00 C 517.37 762.04 509.25 758.00 505.00 761.00
C 503.88 773.19 504.03 789.66 498.00 799.00
C 496.85 791.22 496.88 783.10 497.00 775.00
C 496.77 772.58 496.00 769.09 496.00 766.00
C 496.00 764.67 496.00 763.33 496.00 762.00
C 493.12 762.26 490.10 761.20 488.00 761.00
C 358.73 761.00 230.73 642.42 223.00 513.00
C 222.73 511.13 222.05 508.50 222.00 506.00
C 221.93 502.34 222.00 498.66 222.00 495.00
C 221.79 492.85 220.74 489.87 221.00 487.00
C 209.22 488.14 195.68 486.16 185.00 483.00
C 195.66 478.19 209.19 480.07 221.00 478.00
C 221.47 470.61 220.31 462.02 222.00 455.00 C 223.69 447.98 223.32 439.83 225.00 433.00 C 226.67 426.17 228.44 419.61 229.98 412.98 C 231.51 406.34 233.89 400.18 235.93 393.93 C 237.96 387.68 240.50 381.85 242.92 375.92 C 245.35 369.99 248.27 364.61 250.92 358.92 C 253.58 353.24 256.82 348.13 259.77 342.77 C 262.72 337.41 266.11 332.60 269.75 327.75 C 273.40 322.90 276.03 317.50 279.92 312.92 C 283.81 308.34 287.61 303.85 291.30 299.30 C 295.00 294.76 299.75 291.00 303.75 286.75 C 307.76 282.50 311.54 278.86 315.75 274.75 C 319.97 270.64 325.20 267.58 329.70 263.70 C 334.19 259.81 338.87 256.19 343.75 252.75 C 348.64 249.31 354.11 246.51 359.23 243.23 C 364.35 239.95 369.60 236.87 375.23 234.23 C 380.86 231.59 386.37 228.55 392.23 226.23 C 398.08 223.91 403.88 220.77 410.08 219.08 C 416.28 217.38 422.80 214.85 429.07 213.07 C 435.35 211.30 443.13 209.13 449.67 208.67 C 456.21 208.21 464.59 204.03 471.00 205.00 C 477.41 205.97 489.53 200.37 495.00 204.00
C 495.62 191.62 497.13 177.18 500.00 166.00
C 503.10 178.14 503.42 191.15 504.00 204.00 Z"/>
</g>
<g fill="#F3B54F" fill-opacity="1.00" stroke="None">
<path d="
M 495.00 204.00 
C 494.70 209.95 494.55 218.06 494.00 225.00
C 493.32 233.63 492.03 242.29 491.00 251.00
C 490.37 256.32 489.13 262.22 488.00 267.00
C 485.74 290.39 481.78 313.87 478.00 337.00
C 477.92 337.49 478.00 338.00 478.00 338.00
C 481.11 341.99 476.92 350.16 476.00 354.00
C 475.66 355.40 475.17 358.04 475.00 359.00
C 471.62 378.19 471.22 397.78 468.00 417.00
C 441.81 401.20 416.92 381.83 392.00 364.00
C 388.94 363.99 386.60 361.29 385.00 359.00
C 384.68 358.76 384.00 359.00 384.00 359.00
C 380.59 356.88 377.80 354.69 375.00 352.00
C 374.10 351.35 373.70 350.68 373.00 350.00
C 370.39 347.48 365.91 343.99 363.00 342.00
C 360.65 341.34 358.38 340.64 356.00 340.00
C 361.22 343.81 365.98 353.74 370.00 359.00
C 371.58 360.83 372.78 361.79 374.00 364.00
C 377.70 370.72 382.45 378.07 387.00 384.00
C 403.35 405.33 419.50 427.30 434.00 450.00
C 415.56 453.51 396.56 454.85 378.00 458.00
C 376.62 458.32 374.91 458.83 373.00 459.00
C 367.61 459.47 362.31 460.12 357.00 461.00
C 356.51 461.08 356.00 461.00 356.00 461.00
C 342.88 460.12 329.24 465.43 316.00 466.00 C 302.76 466.57 289.30 470.83 276.00 472.00
C 271.64 472.89 266.99 473.80 262.00 474.00
C 258.07 474.16 254.80 474.58 251.00 475.00
C 246.94 475.84 242.77 477.13 238.00 477.00
C 237.00 476.97 236.00 477.00 235.00 477.00
C 233.62 477.25 232.06 478.25 230.00 478.00
C 229.51 477.94 229.00 478.00 229.00 478.00
C 226.25 480.03 223.46 478.14 221.00 478.00
C 209.19 480.07 195.66 478.19 185.00 483.00
C 195.68 486.16 209.22 488.14 221.00 487.00
C 223.59 486.75 226.27 484.98 229.00 487.00
C 229.50 487.00 230.00 487.00 230.00 487.00
C 239.23 487.00 247.46 488.22 255.00 491.00
C 257.16 491.38 259.99 491.81 262.00 492.00
C 264.91 492.27 267.77 491.36 270.00 493.00
C 270.30 493.22 270.77 493.95 271.00 494.00
C 299.86 494.00 327.35 502.45 356.00 504.00
C 358.04 504.11 359.55 504.64 361.00 505.00
C 366.13 505.51 371.64 507.58 377.00 507.00
C 377.49 506.95 378.00 507.00 378.00 507.00
C 395.52 513.13 416.07 510.16 434.00 515.00
C 419.63 537.53 404.31 560.42 387.00 581.00
C 381.30 588.43 375.66 597.39 370.00 605.00
C 368.08 607.58 364.69 613.61 362.75 615.75 C 360.80 617.88 353.24 624.02 357.00 626.00
C 358.90 625.25 360.98 624.52 363.00 624.00
C 366.55 621.62 369.30 617.44 373.00 615.00
C 379.29 610.85 386.19 606.45 392.00 602.00
C 416.50 583.22 442.27 564.90 468.00 548.00
C 469.99 567.41 473.20 586.52 475.00 606.00
C 474.95 606.50 475.00 607.00 475.00 607.00
C 476.47 608.72 475.71 610.70 476.00 613.00
C 476.60 615.50 478.23 617.27 478.00 621.00
C 477.97 621.50 478.00 622.50 478.00 623.00
C 479.02 625.26 478.01 626.21 478.00 628.00
C 477.93 639.44 481.50 652.47 483.00 664.00
C 483.72 667.10 484.65 670.35 485.00 674.00
C 486.20 686.37 489.00 698.35 489.00 711.00
C 489.16 711.74 489.90 712.74 490.00 714.00
C 490.43 715.75 491.26 717.60 491.00 720.00
C 490.95 720.49 491.00 721.00 491.00 721.00
C 492.36 722.84 492.07 725.51 492.00 728.00
C 491.97 729.00 492.00 730.00 492.00 731.00
C 492.58 733.63 492.72 736.83 493.00 740.00
C 493.46 745.25 495.54 750.67 496.00 756.00
C 496.60 758.95 497.00 762.43 497.00 766.00
C 497.00 769.00 497.00 772.00 497.00 775.00
C 496.88 783.10 496.85 791.22 498.00 799.00
C 504.03 789.66 503.88 773.19 505.00 761.00
C 505.18 759.03 504.97 756.98 505.00 755.00
C 505.04 752.21 505.07 750.18 506.00 748.00
C 505.97 747.50 506.00 746.50 506.00 746.00
C 506.00 741.79 506.28 737.52 507.00 734.00
C 507.40 729.50 508.27 724.59 509.00 720.00
C 509.49 716.92 510.57 712.68 511.00 710.00
C 513.96 655.54 528.47 602.48 532.00 548.00
C 568.33 571.20 602.41 598.34 638.00 623.00
C 637.53 621.45 638.96 620.70 639.00 620.00
C 618.52 582.85 585.68 552.48 566.00 515.00
C 623.08 506.38 681.61 500.88 738.00 491.00
C 746.43 488.04 755.41 487.00 765.00 487.00
C 769.33 487.00 773.67 487.00 778.00 487.00
C 778.50 487.00 779.00 487.00 779.00 487.00
C 791.42 485.07 807.08 489.75 817.00 482.00
C 804.63 479.18 790.29 478.93 778.00 479.00
C 773.56 479.03 768.70 477.28 764.00 477.00
C 761.25 476.84 759.17 476.73 757.00 476.00
C 756.15 475.71 754.90 475.18 754.00 475.00
C 745.05 473.22 735.94 473.70 726.99 472.01 C 718.05 470.32 708.58 470.30 699.78 468.22 C 690.98 466.15 680.77 466.64 672.00 465.00 C 663.23 463.36 653.56 462.47 645.00 461.00 C 636.43 459.53 625.32 459.22 617.33 457.67 C 609.34 456.12 596.97 455.61 590.33 453.67 C 583.69 451.74 566.31 453.69 566.79 447.77 C 567.27 441.85 576.73 435.31 579.30 429.30 C 581.87 423.30 588.59 417.00 591.92 410.92 C 595.26 404.84 601.92 399.56 605.25 393.25 C 608.59 386.95 614.95 381.65 618.30 375.30 C 621.66 368.95 627.88 363.72 631.75 357.75 C 635.62 351.78 642.42 345.65 642.00 339.00
C 605.49 365.32 569.86 393.27 532.00 417.00
C 526.02 362.42 516.59 308.70 511.00 254.00
C 510.88 253.52 510.13 252.94 510.00 252.00
C 509.41 250.47 508.74 249.14 509.00 247.00
C 509.06 246.51 509.00 246.00 509.00 246.00
C 509.00 245.50 509.00 245.00 509.00 245.00
C 507.03 242.34 507.40 236.52 507.00 233.00
C 506.72 230.56 506.20 228.33 506.00 226.00
C 505.19 222.02 505.78 217.77 506.00 214.00
C 505.84 209.94 504.53 207.70 504.00 204.00
C 503.42 191.15 503.10 178.14 500.00 166.00
C 497.13 177.18 495.62 191.62 495.00 204.00 Z"/>
</g>
<g fill="#082C6E" fill-opacity="1.00" stroke="None">
<path d="
M 221.00 478.00 
C 223.67 478.00 226.33 478.00 229.00 478.00
C 229.00 478.00 229.51 477.94 230.00 478.00
C 231.33 476.72 233.06 476.99 235.00 477.00
C 236.00 477.00 237.00 476.97 238.00 477.00
C 241.99 476.12 246.47 475.51 251.00 475.00
C 254.80 474.58 258.07 474.16 262.00 474.00
C 261.99 474.00 262.00 473.00 262.00 473.00
C 258.14 473.11 247.53 474.63 245.00 472.00
C 244.71 469.80 244.92 467.22 245.00 465.00
C 245.07 463.15 245.83 461.19 246.00 460.00
C 246.00 448.83 248.34 436.25 250.93 425.93 C 253.51 415.61 256.31 405.49 259.92 395.92 C 263.54 386.36 267.11 377.53 271.77 368.77 C 276.43 360.01 280.24 351.74 285.92 343.92 C 291.60 336.10 295.99 328.73 302.75 321.75 C 309.51 314.78 318.43 325.60 327.23 328.77 C 336.03 331.94 346.66 337.50 356.00 340.00
C 358.38 340.64 360.65 341.34 363.00 342.00
C 366.56 342.99 367.01 343.28 371.07 343.93 C 375.13 344.58 372.41 347.52 373.00 350.00
C 373.70 350.68 374.10 351.35 375.00 352.00
C 378.09 354.26 381.87 355.74 384.00 359.00
C 384.00 359.00 384.68 358.76 385.00 359.00
C 387.35 360.80 389.08 362.41 392.00 363.00
C 392.30 354.98 395.80 348.21 404.00 351.00 C 412.20 353.79 418.04 353.11 426.07 354.93 C 434.10 356.74 441.75 356.26 450.00 357.00 C 458.25 357.74 466.54 358.99 475.00 359.00
C 474.13 357.11 475.70 355.19 476.00 354.00
C 477.29 348.84 477.63 343.42 478.00 338.00
C 473.24 338.43 467.97 337.38 464.00 337.00
C 461.67 337.00 459.33 337.04 457.00 337.00
C 454.58 336.96 451.70 336.16 450.00 336.00
C 434.09 335.68 418.58 331.88 403.00 330.00
C 416.80 288.74 442.69 239.32 489.00 228.00
C 491.59 229.72 490.00 240.86 490.00 244.00
C 490.55 238.21 493.00 230.58 494.00 225.00
C 494.55 218.06 494.70 209.95 495.00 204.00
C 489.53 200.37 477.41 205.97 471.00 205.00 C 464.59 204.03 456.21 208.21 449.67 208.67 C 443.13 209.13 435.35 211.30 429.07 213.07 C 422.80 214.85 416.28 217.38 410.08 219.08 C 403.88 220.77 398.08 223.91 392.23 226.23 C 386.37 228.55 380.86 231.59 375.23 234.23 C 369.60 236.87 364.35 239.95 359.23 243.23 C 354.11 246.51 348.64 249.31 343.75 252.75 C 338.87 256.19 334.19 259.81 329.70 263.70 C 325.20 267.58 319.97 270.64 315.75 274.75 C 311.54 278.86 307.76 282.50 303.75 286.75 C 299.75 291.00 295.00 294.76 291.30 299.30 C 287.61 303.85 283.81 308.34 279.92 312.92 C 276.03 317.50 273.40 322.90 269.75 327.75 C 266.11 332.60 262.72 337.41 259.77 342.77 C 256.82 348.13 253.58 353.24 250.92 358.92 C 248.27 364.61 245.35 369.99 242.92 375.92 C 240.50 381.85 237.96 387.68 235.93 393.93 C 233.89 400.18 231.51 406.34 229.98 412.98 C 228.44 419.61 226.67 426.17 225.00 433.00 C 223.32 439.83 223.69 447.98 222.00 455.00 C 220.31 462.02 221.47 470.61 221.00 478.00
M 432.00 237.00 
C 424.65 244.92 418.98 252.02 412.70 260.70 C 406.42 269.38 401.59 278.65 396.23 288.23 C 390.87 297.81 387.84 309.03 383.07 319.07 C 378.31 329.11 361.34 318.12 351.93 316.07 C 342.51 314.02 330.94 305.84 322.00 302.00
C 350.85 269.70 391.31 248.80 432.00 237.00 Z"/>
</g>
<g fill="#092D70" fill-opacity="1.00" stroke="None">
<path d="
M 506.00 214.00 
C 506.15 217.97 505.65 222.04 506.00 226.00
C 506.20 228.33 506.72 230.56 507.00 233.00
C 507.80 236.75 509.43 240.47 509.00 245.00
C 509.00 245.00 509.00 245.50 509.00 246.00
C 509.21 246.43 510.85 246.71 511.00 247.00
C 511.00 240.67 511.00 234.33 511.00 228.00
C 637.75 230.31 751.66 344.27 754.00 471.00
C 754.29 472.37 755.51 475.26 757.00 476.00
C 758.01 476.50 763.19 476.88 764.00 477.00
C 768.70 477.28 773.56 479.03 778.00 479.00
C 778.43 423.06 757.56 373.14 729.00 327.00
C 727.72 325.35 726.11 323.97 725.00 322.00
C 720.75 314.46 714.52 308.00 709.00 301.00
C 707.13 298.97 704.79 297.10 703.00 295.00
C 697.91 289.04 692.01 283.14 686.00 278.00
C 683.86 276.17 681.97 273.82 680.00 272.00
C 629.31 231.98 570.37 203.01 504.00 204.00
C 504.53 207.70 505.84 209.94 506.00 214.00 Z"/>
</g>
<g fill="#6A5B4E" fill-opacity="1.00" stroke="None">
<path d="
M 506.00 226.00 
C 505.65 222.04 506.15 217.97 506.00 214.00
C 505.78 217.77 505.19 222.02 506.00 226.00 Z"/>
</g>
<g fill="#5D5E61" fill-opacity="1.00" stroke="None">
<path d="
M 490.00 244.00 
C 490.00 246.21 490.40 248.84 490.00 251.00
C 490.41 250.81 491.00 251.00 491.00 251.00
C 492.03 242.29 493.32 233.63 494.00 225.00
C 493.00 230.58 490.55 238.21 490.00 244.00 Z"/>
</g>
<g fill="#FCFDFD" fill-opacity="1.00" stroke="None">
<path d="
M 450.00 336.00 
C 452.41 336.05 455.31 336.84 457.00 337.00
C 459.33 337.04 461.67 337.00 464.00 337.00
C 468.60 337.00 473.42 336.59 478.00 337.00
C 481.78 313.87 485.74 290.39 488.00 267.00
C 488.49 261.91 489.00 257.24 489.00 252.00
C 489.00 244.00 489.00 236.00 489.00 228.00
C 442.69 239.32 416.80 288.74 403.00 330.00
C 418.58 331.88 434.09 335.68 450.00 336.00 Z"/>
</g>
<g fill="#7D9CBF" fill-opacity="1.00" stroke="None">
<path d="
M 489.00 252.00 
C 489.05 251.77 489.74 251.12 490.00 251.00
C 490.40 248.84 490.00 246.21 490.00 244.00
C 490.00 240.86 491.59 229.72 489.00 228.00
C 489.00 236.00 489.00 244.00 489.00 252.00 Z"/>
</g>
<g fill="#FDFDFD" fill-opacity="1.00" stroke="None">
<path d="
M 511.00 247.00 
C 511.00 249.33 511.00 251.67 511.00 254.00
C 516.59 308.70 526.02 362.42 532.00 417.00
C 569.86 393.27 605.49 365.32 642.00 339.00
C 642.42 345.65 635.62 351.78 631.75 357.75 C 627.88 363.72 621.66 368.95 618.30 375.30 C 614.95 381.65 608.59 386.95 605.25 393.25 C 601.92 399.56 595.26 404.84 591.92 410.92 C 588.59 417.00 581.87 423.30 579.30 429.30 C 576.73 435.31 567.27 441.85 566.79 447.77 C 566.31 453.69 583.69 451.74 590.33 453.67 C 596.97 455.61 609.34 456.12 617.33 457.67 C 625.32 459.22 636.43 459.53 645.00 461.00 C 653.56 462.47 663.23 463.36 672.00 465.00 C 680.77 466.64 690.98 466.15 699.78 468.22 C 708.58 470.30 718.05 470.32 726.99 472.01 C 735.94 473.70 745.05 473.22 754.00 475.00
C 753.58 474.22 754.00 471.91 754.00 471.00
C 751.66 344.27 637.75 230.31 511.00 228.00
C 511.00 234.33 511.00 240.67 511.00 247.00 Z"/>
</g>
<g fill="#7D6B5A" fill-opacity="1.00" stroke="None">
<path d="
M 509.00 245.00 
C 509.43 240.47 507.80 236.75 507.00 233.00
C 507.40 236.52 507.03 242.34 509.00 245.00 Z"/>
</g>
<g fill="#F8FAFA" fill-opacity="1.00" stroke="None">
<path d="
M 432.00 237.00 
C 391.31 248.80 350.85 269.70 322.00 302.00
C 330.94 305.84 342.51 314.02 351.93 316.07 C 361.34 318.12 378.31 329.11 383.07 319.07 C 387.84 309.03 390.87 297.81 396.23 288.23 C 401.59 278.65 406.42 269.38 412.70 260.70 C 418.98 252.02 424.65 244.92 432.00 237.00 Z"/>
</g>
<g fill="#626D7B" fill-opacity="1.00" stroke="None">
<path d="
M 509.00 247.00 
C 510.40 248.45 509.72 249.99 510.00 252.00
C 510.13 252.94 510.88 253.52 511.00 254.00
C 511.00 251.67 511.00 249.33 511.00 247.00
C 510.85 246.71 509.21 246.43 509.00 246.00
C 509.00 246.00 509.06 246.51 509.00 247.00 Z"/>
</g>
<g fill="#95795A" fill-opacity="1.00" stroke="None">
<path d="
M 510.00 252.00 
C 509.72 249.99 510.40 248.45 509.00 247.00
C 508.74 249.14 509.41 250.47 510.00 252.00 Z"/>
</g>
<g fill="#BFA381" fill-opacity="1.00" stroke="None">
<path d="
M 489.00 252.00 
C 489.00 257.24 488.49 261.91 488.00 267.00
C 489.13 262.22 490.37 256.32 491.00 251.00
C 491.00 251.00 490.41 250.81 490.00 251.00
C 489.74 251.12 489.05 251.77 489.00 252.00 Z"/>
</g>
<g fill="#8192B1" fill-opacity="1.00" stroke="None">
<path d="
M 686.00 278.00 
C 684.03 276.03 682.29 273.80 680.00 272.00
C 681.97 273.82 683.86 276.17 686.00 278.00 Z"/>
</g>
<g fill="#768CB2" fill-opacity="1.00" stroke="None">
<path d="
M 709.00 301.00 
C 707.23 298.76 705.02 297.02 703.00 295.00
C 704.79 297.10 707.13 298.97 709.00 301.00 Z"/>
</g>
<g fill="#FCFCFD" fill-opacity="1.00" stroke="None">
<path d="
M 246.00 460.00 
C 246.00 461.67 246.00 463.33 246.00 465.00
C 246.00 467.26 246.30 469.76 246.00 472.00
C 253.33 471.99 260.67 472.00 268.00 472.00
C 270.63 472.00 273.38 472.23 276.00 472.00
C 289.30 470.83 302.76 466.57 316.00 466.00 C 329.24 465.43 342.88 460.12 356.00 461.00
C 355.52 458.37 356.75 455.85 357.00 454.00
C 357.00 452.67 357.00 451.33 357.00 450.00
C 357.00 448.33 356.97 446.67 357.00 445.00
C 357.03 442.86 357.84 440.43 358.00 439.00
C 358.00 436.67 357.94 434.33 358.00 432.00
C 358.06 429.74 358.72 427.61 359.00 426.00
C 359.89 414.89 361.97 403.07 363.00 392.00 C 364.03 380.93 369.73 371.17 370.00 360.00
C 370.01 359.50 370.00 359.00 370.00 359.00
C 365.98 353.74 361.22 343.81 356.00 340.00
C 346.66 337.50 336.03 331.94 327.23 328.77 C 318.43 325.60 309.51 314.78 302.75 321.75 C 295.99 328.73 291.60 336.10 285.92 343.92 C 280.24 351.74 276.43 360.01 271.77 368.77 C 267.11 377.53 263.54 386.36 259.92 395.92 C 256.31 405.49 253.51 415.61 250.93 425.93 C 248.34 436.25 246.00 448.83 246.00 460.00 Z"/>
</g>
<g fill="#5A749D" fill-opacity="1.00" stroke="None">
<path d="
M 729.00 327.00 
C 727.80 325.05 726.25 323.75 725.00 322.00
C 726.11 323.97 727.72 325.35 729.00 327.00 Z"/>
</g>
<g fill="#94A5C4" fill-opacity="1.00" stroke="None">
<path d="
M 457.00 337.00 
C 455.31 336.84 452.41 336.05 450.00 336.00
C 451.70 336.16 454.58 336.96 457.00 337.00 Z"/>
</g>
<g fill="#9AAABE" fill-opacity="1.00" stroke="None">
<path d="
M 478.00 338.00 
C 478.00 338.00 477.92 337.49 478.00 337.00
C 473.42 336.59 468.60 337.00 464.00 337.00
C 467.97 337.38 473.24 338.43 478.00 338.00 Z"/>
</g>
<g fill="#9E8854" fill-opacity="1.00" stroke="None">
<path d="
M 476.00 354.00 
C 476.92 350.16 481.11 341.99 478.00 338.00
C 477.63 343.42 477.29 348.84 476.00 354.00 Z"/>
</g>
<g fill="#E2E1E1" fill-opacity="1.00" stroke="None">
<path d="
M 373.00 350.00 
C 372.41 347.52 375.13 344.58 371.07 343.93 C 367.01 343.28 366.56 342.99 363.00 342.00
C 365.91 343.99 370.39 347.48 373.00 350.00 Z"/>
</g>
<g fill="#FBFBFB" fill-opacity="1.00" stroke="None">
<path d="
M 392.00 363.00 
C 391.98 363.50 392.00 364.00 392.00 364.00
C 416.92 381.83 441.81 401.20 468.00 417.00
C 471.22 397.78 471.62 378.19 475.00 359.00
C 466.54 358.99 458.25 357.74 450.00 357.00 C 441.75 356.26 434.10 356.74 426.07 354.93 C 418.04 353.11 412.20 353.79 404.00 351.00 C 395.80 348.21 392.30 354.98 392.00 363.00 Z"/>
</g>
<g fill="#8F6E51" fill-opacity="1.00" stroke="None">
<path d="
M 384.00 359.00 
C 381.87 355.74 378.09 354.26 375.00 352.00
C 377.80 354.69 380.59 356.88 384.00 359.00 Z"/>
</g>
<g fill="#464D5B" fill-opacity="1.00" stroke="None">
<path d="
M 475.00 359.00 
C 475.17 358.04 475.66 355.40 476.00 354.00
C 475.70 355.19 474.13 357.11 475.00 359.00 Z"/>
</g>
<g fill="#AD885B" fill-opacity="1.00" stroke="None">
<path d="
M 370.00 360.00 
C 371.23 361.18 373.07 362.66 374.00 364.00
C 372.78 361.79 371.58 360.83 370.00 359.00
C 370.00 359.00 370.01 359.50 370.00 360.00 Z"/>
</g>
<g fill="#836D5C" fill-opacity="1.00" stroke="None">
<path d="
M 392.00 364.00 
C 392.00 364.00 391.98 363.50 392.00 363.00
C 389.08 362.41 387.35 360.80 385.00 359.00
C 386.60 361.29 388.94 363.99 392.00 364.00 Z"/>
</g>
<g fill="#0A2C6E" fill-opacity="1.00" stroke="None">
<path d="
M 359.00 426.00 
C 358.84 427.99 358.15 430.66 358.00 432.00
C 357.94 434.33 358.00 436.67 358.00 439.00
C 358.00 441.00 358.07 443.01 358.00 445.00
C 357.94 446.85 357.16 448.82 357.00 450.00
C 357.00 451.33 357.00 452.67 357.00 454.00
C 357.00 456.26 357.30 458.76 357.00 461.00
C 362.31 460.12 367.61 459.47 373.00 459.00
C 374.13 458.78 376.21 457.15 378.00 458.00
C 378.07 454.67 377.91 451.33 378.00 448.00
C 378.06 445.88 378.84 443.43 379.00 442.00
C 379.27 432.26 382.00 421.46 382.00 412.00 C 382.00 402.54 388.23 393.06 387.00 384.00
C 382.45 378.07 377.70 370.72 374.00 364.00
C 373.07 362.66 371.23 361.18 370.00 360.00
C 369.73 371.17 364.03 380.93 363.00 392.00 C 361.97 403.07 359.89 414.89 359.00 426.00 Z"/>
</g>
<g fill="#FCFCFC" fill-opacity="1.00" stroke="None">
<path d="
M 379.00 442.00 
C 378.94 444.12 378.16 446.57 378.00 448.00
C 377.91 451.33 378.07 454.67 378.00 458.00
C 396.56 454.85 415.56 453.51 434.00 450.00
C 419.50 427.30 403.35 405.33 387.00 384.00
C 388.23 393.06 382.00 402.54 382.00 412.00 C 382.00 421.46 379.27 432.26 379.00 442.00 Z"/>
</g>
<g fill="#7A8EB1" fill-opacity="1.00" stroke="None">
<path d="
M 358.00 432.00 
C 358.15 430.66 358.84 427.99 359.00 426.00
C 358.72 427.61 358.06 429.74 358.00 432.00 Z"/>
</g>
<g fill="#7A8FAF" fill-opacity="1.00" stroke="None">
<path d="
M 357.00 445.00 
C 357.05 444.85 358.00 445.00 358.00 445.00
C 358.07 443.01 358.00 441.00 358.00 439.00
C 357.84 440.43 357.03 442.86 357.00 445.00 Z"/>
</g>
<g fill="#788DB0" fill-opacity="1.00" stroke="None">
<path d="
M 378.00 448.00 
C 378.16 446.57 378.94 444.12 379.00 442.00
C 378.84 443.43 378.06 445.88 378.00 448.00 Z"/>
</g>
<g fill="#3F5A8C" fill-opacity="1.00" stroke="None">
<path d="
M 357.00 450.00 
C 357.16 448.82 357.94 446.85 358.00 445.00
C 358.00 445.00 357.05 444.85 357.00 445.00
C 356.97 446.67 357.00 448.33 357.00 450.00 Z"/>
</g>
<g fill="#8A9BB2" fill-opacity="1.00" stroke="None">
<path d="
M 356.00 461.00 
C 356.00 461.00 356.51 461.08 357.00 461.00
C 357.30 458.76 357.00 456.26 357.00 454.00
C 356.75 455.85 355.52 458.37 356.00 461.00 Z"/>
</g>
<g fill="#806B54" fill-opacity="1.00" stroke="None">
<path d="
M 373.00 459.00 
C 374.91 458.83 376.62 458.32 378.00 458.00
C 376.21 457.15 374.13 458.78 373.00 459.00 Z"/>
</g>
<g fill="#7A94B6" fill-opacity="1.00" stroke="None">
<path d="
M 245.00 465.00 
C 245.01 464.93 246.00 465.00 246.00 465.00
C 246.00 463.33 246.00 461.67 246.00 460.00
C 245.83 461.19 245.07 463.15 245.00 465.00 Z"/>
</g>
<g fill="#BAC8DC" fill-opacity="1.00" stroke="None">
<path d="
M 245.00 472.00 
C 245.01 472.07 246.00 472.00 246.00 472.00
C 246.30 469.76 246.00 467.26 246.00 465.00
C 246.00 465.00 245.01 464.93 245.00 465.00
C 244.92 467.22 244.71 469.80 245.00 472.00 Z"/>
</g>
<g fill="#4C6082" fill-opacity="1.00" stroke="None">
<path d="
M 754.00 475.00 
C 754.90 475.18 756.15 475.71 757.00 476.00
C 755.51 475.26 754.29 472.37 754.00 471.00
C 754.00 471.91 753.58 474.22 754.00 475.00 Z"/>
</g>
<g fill="#597291" fill-opacity="1.00" stroke="None">
<path d="
M 262.00 473.00 
C 264.12 472.94 266.57 472.16 268.00 472.00
C 260.67 472.00 253.33 471.99 246.00 472.00
C 246.00 472.00 245.01 472.07 245.00 472.00
C 247.53 474.63 258.14 473.11 262.00 473.00 Z"/>
</g>
<g fill="#8C8062" fill-opacity="1.00" stroke="None">
<path d="
M 262.00 473.00 
C 262.00 473.00 261.99 474.00 262.00 474.00
C 266.99 473.80 271.64 472.89 276.00 472.00
C 273.38 472.23 270.63 472.00 268.00 472.00
C 266.57 472.16 264.12 472.94 262.00 473.00 Z"/>
</g>
<g fill="#74695C" fill-opacity="1.00" stroke="None">
<path d="
M 238.00 477.00 
C 242.77 477.13 246.94 475.84 251.00 475.00
C 246.47 475.51 241.99 476.12 238.00 477.00 Z"/>
</g>
<g fill="#776952" fill-opacity="1.00" stroke="None">
<path d="
M 764.00 477.00 
C 763.19 476.88 758.01 476.50 757.00 476.00
C 759.17 476.73 761.25 476.84 764.00 477.00 Z"/>
</g>
<g fill="#58595F" fill-opacity="1.00" stroke="None">
<path d="
M 230.00 478.00 
C 232.06 478.25 233.62 477.25 235.00 477.00
C 233.06 476.99 231.33 476.72 230.00 478.00 Z"/>
</g>
<g fill="#545861" fill-opacity="1.00" stroke="None">
<path d="
M 229.00 478.00 
C 226.33 478.00 223.67 478.00 221.00 478.00
C 223.46 478.14 226.25 480.03 229.00 478.00 Z"/>
</g>
<g fill="#A78158" fill-opacity="1.00" stroke="None">
<path d="
M 221.00 487.00 
C 221.00 486.96 222.00 487.00 222.00 487.00
C 224.33 487.00 226.67 487.00 229.00 487.00
C 226.27 484.98 223.59 486.75 221.00 487.00 Z"/>
</g>
<g fill="#5E739D" fill-opacity="1.00" stroke="None">
<path d="
M 222.00 495.00 
C 222.00 492.37 222.24 489.62 222.00 487.00
C 222.00 487.00 221.00 486.96 221.00 487.00
C 220.74 489.87 221.79 492.85 222.00 495.00 Z"/>
</g>
<g fill="#082C6F" fill-opacity="1.00" stroke="None">
<path d="
M 222.00 495.00 
C 222.00 498.66 221.93 502.34 222.00 506.00
C 222.16 507.69 222.86 510.69 223.00 513.00
C 230.73 642.42 358.73 761.00 488.00 761.00
C 490.63 761.00 493.38 760.76 496.00 761.00
C 496.00 759.35 496.14 757.64 496.00 756.00
C 495.54 750.67 493.46 745.25 493.00 740.00
C 492.46 737.36 492.00 734.26 492.00 731.00
C 492.00 730.00 491.97 729.00 492.00 728.00
C 491.56 725.98 490.75 723.68 491.00 721.00
C 491.00 721.00 490.95 720.49 491.00 720.00
C 490.75 719.75 490.00 720.00 490.00 720.00
C 490.00 723.38 491.68 735.15 489.00 737.00
C 483.70 740.66 474.18 732.86 469.25 730.75 C 464.33 728.63 457.85 723.54 453.25 719.75 C 448.66 715.96 444.01 710.50 440.25 705.75 C 436.48 701.01 432.17 696.58 428.75 691.25 C 425.33 685.92 422.30 679.64 419.08 673.92 C 415.86 668.21 412.77 661.95 410.22 655.78 C 407.68 649.60 404.20 642.69 403.00 636.00
C 422.53 633.20 441.75 629.04 462.00 629.00
C 463.75 628.83 466.60 628.05 469.00 628.00
C 472.00 627.94 475.00 628.05 478.00 628.00
C 478.00 626.33 478.00 624.67 478.00 623.00
C 478.00 622.50 477.97 621.50 478.00 621.00
C 477.14 618.98 476.31 615.44 476.00 613.00
C 475.71 610.70 476.47 608.72 475.00 607.00
C 473.69 607.45 471.40 607.00 470.00 607.00
C 444.74 607.00 420.09 611.13 396.00 616.00
C 394.45 611.40 392.08 607.03 392.00 602.00
C 386.19 606.45 379.29 610.85 373.00 615.00
C 377.28 622.66 367.88 622.74 363.00 624.00
C 360.98 624.52 358.90 625.25 357.00 626.00
C 343.86 631.22 329.09 634.62 316.92 642.92 C 304.75 651.23 295.01 632.12 289.00 622.00
C 287.77 620.35 286.17 618.89 285.00 617.00
C 281.37 611.13 278.02 605.04 275.00 599.00
C 273.51 596.62 272.19 594.75 271.00 592.00
C 257.88 561.59 248.59 533.71 246.00 500.00
C 245.25 490.19 252.83 493.00 262.00 493.00
C 261.96 493.00 262.00 492.00 262.00 492.00
C 259.99 491.81 257.16 491.38 255.00 491.00
C 254.52 490.92 253.42 490.23 253.00 490.00
C 249.11 489.17 244.14 491.32 241.00 489.00
C 240.50 489.00 240.00 489.00 240.00 489.00
C 236.94 489.00 234.42 488.99 232.00 488.00
C 230.42 487.81 231.07 487.71 230.00 487.00
C 230.00 487.00 229.50 487.00 229.00 487.00
C 226.67 487.00 224.33 487.00 222.00 487.00
C 222.24 489.62 222.00 492.37 222.00 495.00
M 333.00 672.00 
C 329.99 669.43 327.08 666.38 324.00 664.00
C 324.83 662.53 326.07 660.75 328.00 661.00
C 344.58 651.48 362.92 646.28 381.00 641.00
C 391.69 671.78 406.83 701.23 429.00 726.00
C 393.68 715.90 361.41 696.02 333.00 672.00 Z"/>
</g>
<g fill="#AB8750" fill-opacity="1.00" stroke="None">
<path d="
M 232.00 488.00 
C 234.92 488.36 237.74 487.32 240.00 489.00
C 240.00 489.00 240.50 489.00 241.00 489.00
C 244.92 489.00 249.87 488.28 253.00 490.00
C 253.42 490.23 254.52 490.92 255.00 491.00
C 247.46 488.22 239.23 487.00 230.00 487.00
C 231.07 487.71 230.42 487.81 232.00 488.00 Z"/>
</g>
<g fill="#A48762" fill-opacity="1.00" stroke="None">
<path d="
M 738.00 491.00 
C 743.32 489.99 748.62 489.87 754.00 489.00
C 756.89 488.53 762.17 487.27 765.00 487.00
C 755.41 487.00 746.43 488.04 738.00 491.00 Z"/>
</g>
<g fill="#092D71" fill-opacity="1.00" stroke="None">
<path d="
M 754.00 489.00 
C 750.92 493.40 755.24 501.25 753.02 507.02 C 750.81 512.80 753.84 518.33 751.02 525.02 C 748.21 531.72 750.52 532.90 747.67 541.67 C 744.82 550.44 741.80 562.45 738.07 571.07 C 734.35 579.70 736.07 576.75 732.08 585.08 C 728.08 593.40 723.06 602.36 718.25 610.25 C 713.43 618.14 707.65 626.88 702.08 634.08 C 696.51 641.28 698.16 638.97 693.00 645.00
C 690.84 647.53 688.28 649.72 686.00 652.00
C 641.79 703.73 576.54 732.01 511.00 737.00
C 511.00 731.33 511.00 725.67 511.00 720.00
C 510.92 720.19 509.06 719.84 509.00 720.00
C 508.27 724.59 507.40 729.50 507.00 734.00
C 506.63 738.19 507.50 742.47 506.00 746.00
C 506.00 746.50 505.97 747.50 506.00 748.00
C 506.16 750.54 505.17 753.22 505.00 755.00
C 504.97 756.98 505.18 759.03 505.00 761.00
C 509.25 758.00 517.37 762.04 523.00 760.00 C 528.63 757.96 533.13 759.87 539.99 757.99 C 546.85 756.12 546.85 757.28 555.99 754.99 C 565.13 752.71 576.89 750.13 585.93 746.93 C 594.96 743.72 604.24 739.79 612.92 735.92 C 621.60 732.06 629.80 727.63 637.77 722.77 C 645.74 717.91 653.34 713.32 660.75 707.75 C 668.16 702.19 674.86 697.10 682.00 691.00
C 683.67 689.33 685.22 687.52 687.00 686.00
C 712.54 664.18 730.83 639.33 746.08 610.08 C 761.32 580.82 777.00 541.32 777.00 507.00
C 777.00 503.57 777.74 499.69 778.00 497.00
C 778.00 493.71 777.70 490.27 778.00 487.00
C 773.67 487.00 769.33 487.00 765.00 487.00
C 762.17 487.27 756.89 488.53 754.00 489.00 Z"/>
</g>
<g fill="#CAD0DE" fill-opacity="1.00" stroke="None">
<path d="
M 778.00 497.00 
C 778.00 498.00 777.97 499.00 778.00 500.00
C 778.45 496.31 779.40 491.46 779.00 487.00
C 779.00 487.00 778.50 487.00 778.00 487.00
C 777.70 490.27 778.00 493.71 778.00 497.00 Z"/>
</g>
<g fill="#484A61" fill-opacity="1.00" stroke="None">
<path d="
M 240.00 489.00 
C 237.74 487.32 234.92 488.36 232.00 488.00
C 234.42 488.99 236.94 489.00 240.00 489.00 Z"/>
</g>
<g fill="#40495D" fill-opacity="1.00" stroke="None">
<path d="
M 253.00 490.00 
C 249.87 488.28 244.92 489.00 241.00 489.00
C 244.14 491.32 249.11 489.17 253.00 490.00 Z"/>
</g>
<g fill="#FDFDFD" fill-opacity="1.00" stroke="None">
<path d="
M 738.00 491.00 
C 681.61 500.88 623.08 506.38 566.00 515.00
C 585.68 552.48 618.52 582.85 639.00 620.00
C 639.95 621.73 640.82 623.43 642.00 625.00
C 640.18 625.55 639.53 623.25 638.00 623.00
C 602.41 598.34 568.33 571.20 532.00 548.00
C 528.47 602.48 513.96 655.54 511.00 710.00
C 510.82 713.31 511.00 716.68 511.00 720.00
C 511.00 725.67 511.00 731.33 511.00 737.00
C 576.54 732.01 641.79 703.73 686.00 652.00
C 688.16 649.47 690.72 647.28 693.00 645.00
C 698.16 638.97 696.51 641.28 702.08 634.08 C 707.65 626.88 713.43 618.14 718.25 610.25 C 723.06 602.36 728.08 593.40 732.08 585.08 C 736.07 576.75 734.35 579.70 738.07 571.07 C 741.80 562.45 744.82 550.44 747.67 541.67 C 750.52 532.90 748.21 531.72 751.02 525.02 C 753.84 518.33 750.81 512.80 753.02 507.02 C 755.24 501.25 750.92 493.40 754.00 489.00
C 748.62 489.87 743.32 489.99 738.00 491.00 Z"/>
</g>
<g fill="#735E53" fill-opacity="1.00" stroke="None">
<path d="
M 262.00 493.00 
C 264.58 493.00 267.45 492.63 270.00 493.00
C 267.77 491.36 264.91 492.27 262.00 492.00
C 262.00 492.00 261.96 493.00 262.00 493.00 Z"/>
</g>
<g fill="#7B87AC" fill-opacity="1.00" stroke="None">
<path d="
M 246.00 500.00 
C 246.12 498.01 245.91 495.99 246.00 494.00
C 254.33 494.00 262.67 494.00 271.00 494.00
C 270.77 493.95 270.30 493.22 270.00 493.00
C 267.45 492.63 264.58 493.00 262.00 493.00
C 252.83 493.00 245.25 490.19 246.00 500.00 Z"/>
</g>
<g fill="#FCFCFD" fill-opacity="1.00" stroke="None">
<path d="
M 246.00 500.00 
C 248.59 533.71 257.88 561.59 271.00 592.00
C 272.28 594.19 273.78 596.56 275.00 599.00
C 278.02 605.04 281.37 611.13 285.00 617.00
C 286.41 618.81 287.77 619.93 289.00 622.00
C 295.01 632.12 304.75 651.23 316.92 642.92 C 329.09 634.62 343.86 631.22 357.00 626.00
C 353.24 624.02 360.80 617.88 362.75 615.75 C 364.69 613.61 368.08 607.58 370.00 605.00
C 371.18 597.24 365.68 589.12 365.01 580.99 C 364.33 572.86 361.75 563.60 361.00 555.00 C 360.26 546.40 358.00 537.04 358.00 528.00
C 357.78 525.72 357.28 521.87 357.00 519.00
C 356.65 515.34 356.19 511.71 357.00 508.00
C 357.00 507.32 357.29 505.60 357.00 505.00
C 356.65 504.89 356.21 504.03 356.00 504.00
C 327.35 502.45 299.86 494.00 271.00 494.00
C 262.67 494.00 254.33 494.00 246.00 494.00
C 245.91 495.99 246.12 498.01 246.00 500.00 Z"/>
</g>
<g fill="#7384AB" fill-opacity="1.00" stroke="None">
<path d="
M 777.00 507.00 
C 777.17 505.25 778.07 502.50 778.00 500.00
C 777.97 499.00 778.00 498.00 778.00 497.00
C 777.74 499.69 777.00 503.57 777.00 507.00 Z"/>
</g>
<g fill="#A48B6D" fill-opacity="1.00" stroke="None">
<path d="
M 357.00 505.00 
C 358.16 505.36 359.78 504.88 361.00 505.00
C 359.55 504.64 358.04 504.11 356.00 504.00
C 356.21 504.03 356.65 504.89 357.00 505.00 Z"/>
</g>
<g fill="#092B6F" fill-opacity="1.00" stroke="None">
<path d="
M 357.00 508.00 
C 357.00 511.61 356.65 515.41 357.00 519.00
C 357.23 521.42 358.00 524.91 358.00 528.00
C 358.00 537.04 360.26 546.40 361.00 555.00 C 361.75 563.60 364.33 572.86 365.01 580.99 C 365.68 589.12 371.18 597.24 370.00 605.00
C 375.66 597.39 381.30 588.43 387.00 581.00
C 388.10 571.75 381.84 561.88 382.00 552.00 C 382.16 542.12 379.00 531.36 379.00 521.00
C 378.83 519.56 378.10 517.06 378.00 515.00
C 377.86 512.08 378.32 509.61 377.00 507.00
C 371.64 507.58 366.13 505.51 361.00 505.00
C 359.78 504.88 358.16 505.36 357.00 505.00
C 357.29 505.60 357.00 507.32 357.00 508.00 Z"/>
</g>
<g fill="#8597B8" fill-opacity="1.00" stroke="None">
<path d="
M 223.00 513.00 
C 222.86 510.69 222.16 507.69 222.00 506.00
C 222.05 508.50 222.73 511.13 223.00 513.00 Z"/>
</g>
<g fill="#BBC2CF" fill-opacity="1.00" stroke="None">
<path d="
M 378.00 515.00 
C 378.00 514.99 379.00 515.00 379.00 515.00
C 378.97 512.48 379.67 509.07 378.00 507.00
C 378.00 507.00 377.49 506.95 377.00 507.00
C 378.32 509.61 377.86 512.08 378.00 515.00 Z"/>
</g>
<g fill="#FCFCFC" fill-opacity="1.00" stroke="None">
<path d="
M 379.00 515.00 
C 379.03 517.00 379.00 519.00 379.00 521.00
C 379.00 531.36 382.16 542.12 382.00 552.00 C 381.84 561.88 388.10 571.75 387.00 581.00
C 404.31 560.42 419.63 537.53 434.00 515.00
C 416.07 510.16 395.52 513.13 378.00 507.00
C 379.67 509.07 378.97 512.48 379.00 515.00 Z"/>
</g>
<g fill="#BECCDD" fill-opacity="1.00" stroke="None">
<path d="
M 357.00 519.00 
C 356.65 515.41 357.00 511.61 357.00 508.00
C 356.19 511.71 356.65 515.34 357.00 519.00 Z"/>
</g>
<g fill="#8099B9" fill-opacity="1.00" stroke="None">
<path d="
M 379.00 521.00 
C 379.00 519.00 379.03 517.00 379.00 515.00
C 379.00 515.00 378.00 514.99 378.00 515.00
C 378.10 517.06 378.83 519.56 379.00 521.00 Z"/>
</g>
<g fill="#7F94BA" fill-opacity="1.00" stroke="None">
<path d="
M 358.00 528.00 
C 358.00 524.91 357.23 521.42 357.00 519.00
C 357.28 521.87 357.78 525.72 358.00 528.00 Z"/>
</g>
<g fill="#FBFBFB" fill-opacity="1.00" stroke="None">
<path d="
M 392.00 602.00 
C 392.08 607.03 394.45 611.40 396.00 616.00
C 420.09 611.13 444.74 607.00 470.00 607.00
C 471.24 606.83 473.04 605.37 475.00 606.00
C 473.20 586.52 469.99 567.41 468.00 548.00
C 442.27 564.90 416.50 583.22 392.00 602.00 Z"/>
</g>
<g fill="#8194B4" fill-opacity="1.00" stroke="None">
<path d="
M 275.00 599.00 
C 273.78 596.56 272.28 594.19 271.00 592.00
C 272.19 594.75 273.51 596.62 275.00 599.00 Z"/>
</g>
<g fill="#8196B6" fill-opacity="1.00" stroke="None">
<path d="
M 470.00 607.00 
C 471.40 607.00 473.69 607.45 475.00 607.00
C 475.00 607.00 474.95 606.50 475.00 606.00
C 473.04 605.37 471.24 606.83 470.00 607.00 Z"/>
</g>
<g fill="#998455" fill-opacity="1.00" stroke="None">
<path d="
M 478.00 621.00 
C 478.23 617.27 476.60 615.50 476.00 613.00
C 476.31 615.44 477.14 618.98 478.00 621.00 Z"/>
</g>
<g fill="#DFE2E6" fill-opacity="1.00" stroke="None">
<path d="
M 363.00 624.00 
C 367.88 622.74 377.28 622.66 373.00 615.00
C 369.30 617.44 366.55 621.62 363.00 624.00 Z"/>
</g>
<g fill="#7D92B0" fill-opacity="1.00" stroke="None">
<path d="
M 289.00 622.00 
C 287.77 619.93 286.41 618.81 285.00 617.00
C 286.17 618.89 287.77 620.35 289.00 622.00 Z"/>
</g>
<g fill="#53493D" fill-opacity="1.00" stroke="None">
<path d="
M 638.00 623.00 
C 639.53 623.25 640.18 625.55 642.00 625.00
C 640.82 623.43 639.95 621.73 639.00 620.00
C 638.96 620.70 637.53 621.45 638.00 623.00 Z"/>
</g>
<g fill="#A18965" fill-opacity="1.00" stroke="None">
<path d="
M 478.00 628.00 
C 478.01 626.21 479.02 625.26 478.00 623.00
C 478.00 624.67 478.00 626.33 478.00 628.00 Z"/>
</g>
<g fill="#94A0BA" fill-opacity="1.00" stroke="None">
<path d="
M 462.00 629.00 
C 464.41 628.95 467.30 628.16 469.00 628.00
C 466.60 628.05 463.75 628.83 462.00 629.00 Z"/>
</g>
<g fill="#FBFCFC" fill-opacity="1.00" stroke="None">
<path d="
M 462.00 629.00 
C 441.75 629.04 422.53 633.20 403.00 636.00
C 404.20 642.69 407.68 649.60 410.22 655.78 C 412.77 661.95 415.86 668.21 419.08 673.92 C 422.30 679.64 425.33 685.92 428.75 691.25 C 432.17 696.58 436.48 701.01 440.25 705.75 C 444.01 710.50 448.66 715.96 453.25 719.75 C 457.85 723.54 464.33 728.63 469.25 730.75 C 474.18 732.86 483.70 740.66 489.00 737.00
C 489.00 728.33 489.00 719.67 489.00 711.00
C 489.00 698.35 486.20 686.37 485.00 674.00
C 484.42 671.00 483.46 667.52 483.00 664.00
C 481.50 652.47 477.93 639.44 478.00 628.00
C 475.00 628.05 472.00 627.94 469.00 628.00
C 467.30 628.16 464.41 628.95 462.00 629.00 Z"/>
</g>
<g fill="#F8FAFA" fill-opacity="1.00" stroke="None">
<path d="
M 328.00 661.00 
C 327.04 661.74 325.45 662.64 325.00 664.00
C 327.96 666.21 330.90 669.02 333.00 672.00
C 361.41 696.02 393.68 715.90 429.00 726.00
C 406.83 701.23 391.69 671.78 381.00 641.00
C 362.92 646.28 344.58 651.48 328.00 661.00 Z"/>
</g>
<g fill="#A7B3C9" fill-opacity="1.00" stroke="None">
<path d="
M 686.00 652.00 
C 688.28 649.72 690.84 647.53 693.00 645.00
C 690.72 647.28 688.16 649.47 686.00 652.00 Z"/>
</g>
<g fill="#839BBB" fill-opacity="1.00" stroke="None">
<path d="
M 333.00 672.00 
C 330.90 669.02 327.96 666.21 325.00 664.00
C 325.45 662.64 327.04 661.74 328.00 661.00
C 326.07 660.75 324.83 662.53 324.00 664.00
C 327.08 666.38 329.99 669.43 333.00 672.00 Z"/>
</g>
<g fill="#DEC7A5" fill-opacity="1.00" stroke="None">
<path d="
M 485.00 674.00 
C 484.65 670.35 483.72 667.10 483.00 664.00
C 483.46 667.52 484.42 671.00 485.00 674.00 Z"/>
</g>
<g fill="#486296" fill-opacity="1.00" stroke="None">
<path d="
M 682.00 691.00 
C 683.78 689.48 685.33 687.67 687.00 686.00
C 685.22 687.52 683.67 689.33 682.00 691.00 Z"/>
</g>
<g fill="#5D6F7D" fill-opacity="1.00" stroke="None">
<path d="
M 509.00 720.00 
C 509.06 719.84 510.92 720.19 511.00 720.00
C 511.00 716.68 510.82 713.31 511.00 710.00
C 510.57 712.68 509.49 716.92 509.00 720.00 Z"/>
</g>
<g fill="#809EB9" fill-opacity="1.00" stroke="None">
<path d="
M 489.00 737.00 
C 491.68 735.15 490.00 723.38 490.00 720.00
C 490.00 718.02 490.16 715.97 490.00 714.00
C 489.90 712.74 489.16 711.74 489.00 711.00
C 489.00 719.67 489.00 728.33 489.00 737.00 Z"/>
</g>
<g fill="#887E71" fill-opacity="1.00" stroke="None">
<path d="
M 490.00 720.00 
C 490.00 720.00 490.75 719.75 491.00 720.00
C 491.26 717.60 490.43 715.75 490.00 714.00
C 490.16 715.97 490.00 718.02 490.00 720.00 Z"/>
</g>
<g fill="#5C5E5C" fill-opacity="1.00" stroke="None">
<path d="
M 492.00 728.00 
C 492.07 725.51 492.36 722.84 491.00 721.00
C 490.75 723.68 491.56 725.98 492.00 728.00 Z"/>
</g>
<g fill="#575759" fill-opacity="1.00" stroke="None">
<path d="
M 493.00 740.00 
C 492.72 736.83 492.58 733.63 492.00 731.00
C 492.00 734.26 492.46 737.36 493.00 740.00 Z"/>
</g>
<g fill="#846748" fill-opacity="1.00" stroke="None">
<path d="
M 506.00 746.00 
C 507.50 742.47 506.63 738.19 507.00 734.00
C 506.28 737.52 506.00 741.79 506.00 746.00 Z"/>
</g>
<g fill="#6E5B4E" fill-opacity="1.00" stroke="None">
<path d="
M 505.00 755.00 
C 505.17 753.22 506.16 750.54 506.00 748.00
C 505.07 750.18 505.04 752.21 505.00 755.00 Z"/>
</g>
<g fill="#B38F59" fill-opacity="1.00" stroke="None">
<path d="
M 496.00 761.00 
C 496.00 761.50 496.00 762.00 496.00 762.00
C 496.00 763.33 496.00 764.67 496.00 766.00
C 496.13 766.22 497.00 766.00 497.00 766.00
C 497.00 762.43 496.60 758.95 496.00 756.00
C 496.14 757.64 496.00 759.35 496.00 761.00 Z"/>
</g>
<g fill="#919EB8" fill-opacity="1.00" stroke="None">
<path d="
M 496.00 762.00 
C 496.00 762.00 496.00 761.50 496.00 761.00
C 493.38 760.76 490.63 761.00 488.00 761.00
C 490.10 761.20 493.12 762.26 496.00 762.00 Z"/>
</g>
<g fill="#E5D1B3" fill-opacity="1.00" stroke="None">
<path d="
M 497.00 775.00 
C 497.00 772.00 497.00 769.00 497.00 766.00
C 497.00 766.00 496.13 766.22 496.00 766.00
C 496.00 769.09 496.77 772.58 497.00 775.00 Z"/>
</g>
</svg>